<svg width="205" height="276" viewBox="0 0 205 276" fill="none" xmlns="http://www.w3.org/2000/svg">
<path opacity="0.8" d="M105.748 276C187.592 276 205 225.785 205 185.325V182.796C205 146.309 186.812 127.162 170.184 121.382C184.734 114.518 199.024 100.429 199.024 71.5288V69C199.024 38.6544 184.214 0 105.748 0H91.1977C11.9518 0 2.59823 59.6073 2.59823 81.644V85.6178H58.2003C58.9797 79.1152 60.7985 57.801 101.071 57.801C141.343 57.801 145.76 71.5288 145.76 84.1728C145.76 95.3717 141.084 105.848 122.117 105.848H60.5387V160.398H122.376C142.123 160.398 148.359 169.791 148.359 183.88C148.359 197.607 142.902 216.031 101.591 216.031C60.5387 216.031 57.9404 187.853 57.161 180.628H0V183.88C0 211.696 12.9911 276 94.8352 276H105.748Z" fill="url(#paint0_linear_254_227)"/>
<defs>
<linearGradient id="paint0_linear_254_227" x1="102.5" y1="0" x2="102.5" y2="276" gradientUnits="userSpaceOnUse">
<stop stop-color="#40F214"/>
<stop offset="1" stop-color="#15D028"/>
</linearGradient>
</defs>
</svg>
