<svg width="543" height="384" viewBox="0 0 543 384" fill="none" xmlns="http://www.w3.org/2000/svg">
<path d="M290.616 0H196.312V14.6876H290.616V0Z" fill="url(#paint0_linear_813_1411)"/>
<path d="M407.983 56.2177H313.68V64.6872H407.983V56.2177Z" fill="url(#paint1_linear_813_1411)"/>
<path d="M290.751 64.7006H263.145V75.6628H290.751V64.7006Z" fill="url(#paint2_linear_813_1411)"/>
<path d="M324.065 64.7006H308.011V75.6628H324.065V64.7006Z" fill="#FEFE00"/>
<path d="M385.067 1.86273H354.231V12.8249H385.067V1.86273Z" fill="#FEFE00"/>
<path d="M357.556 64.7006H341.502V75.6628H357.556V64.7006Z" fill="#FEFE00"/>
<path d="M243.458 64.7006H227.953V75.6628H243.458V64.7006Z" fill="url(#paint3_linear_813_1411)"/>
<path d="M136.396 69.1766H124.777V80.1387H136.396V69.1766Z" fill="#FEFE21"/>
<path d="M72.4332 23.9076H60.8145V34.8697H72.4332V23.9076Z" fill="url(#paint4_linear_813_1411)"/>
<path d="M227.953 64.7006H218.987V75.6628H227.953V64.7006Z" fill="url(#paint5_linear_813_1411)"/>
<path d="M201.299 69.1766H187.12V80.1387H201.299V69.1766Z" fill="white"/>
<path d="M457.167 54.9714H433.956V65.9335H457.167V54.9714Z" fill="url(#paint6_linear_813_1411)"/>
<path d="M482.186 32.9399H419.188V36.7995H482.186V32.9399Z" fill="url(#paint7_linear_813_1411)"/>
<path d="M290.764 52.5458H232.121V56.2177H290.764V52.5458Z" fill="white"/>
<path d="M354.231 92.2668H342.532V103.966H354.231V92.2668Z" fill="white"/>
<path d="M210.772 304.809H189.156V312.769H210.772V304.809Z" fill="white"/>
<path d="M401.539 294.53H258.013V302.276H401.539V294.53Z" fill="#FEFE21"/>
<path d="M188.23 294.53H146.218V302.276H188.23V294.53Z" fill="url(#paint8_linear_813_1411)"/>
<path d="M176.974 304.809H165.852V312.769H176.974V304.809Z" fill="url(#paint9_linear_813_1411)"/>
<path d="M233.447 304.809H222.324V312.769H233.447V304.809Z" fill="#FEFE00"/>
<path d="M315.088 305.036H303.965V312.782H315.088V305.036Z" fill="#FEFE00"/>
<path d="M56.1775 329.614H48.4316V337.36H56.1775V329.614Z" fill="#FEFE00"/>
<path d="M173.597 329.614H165.852V337.36H173.597V329.614Z" fill="#FEFE00"/>
<path d="M543.001 353.213H535.255V360.959H543.001V353.213Z" fill="#FEFE00"/>
<path d="M99.7579 263.319H74.3359V271.065H99.7579V263.319Z" fill="white"/>
<path d="M313.399 305.036H305.653V312.782H313.399V305.036Z" fill="#FEFE00"/>
<path d="M255.882 343.953H248.136V351.699H255.882V343.953Z" fill="url(#paint10_linear_813_1411)"/>
<path d="M165.865 364.685H158.119V372.431H165.865V364.685Z" fill="url(#paint11_linear_813_1411)"/>
<path d="M196.902 318.491H189.156V326.237H196.902V318.491Z" fill="url(#paint12_linear_813_1411)"/>
<path d="M220.462 322.364H212.716V326.237H220.462V322.364Z" fill="url(#paint13_linear_813_1411)"/>
<path d="M103.684 356.778H95.9385V364.524H103.684V356.778Z" fill="url(#paint14_linear_813_1411)"/>
<path d="M42.3201 254.353H34.5742V262.099H42.3201V254.353Z" fill="url(#paint15_linear_813_1411)"/>
<path d="M373.463 312.769H0V316.401H373.463V312.769Z" fill="url(#paint16_linear_813_1411)"/>
<path d="M472.577 302.262H114.485V304.809H472.577V302.262Z" fill="url(#paint17_linear_813_1411)"/>
<path d="M53.4302 172.754L45.5771 183.676H97.5601L105.172 172.754H53.4302Z" fill="url(#paint18_linear_813_1411)"/>
<path d="M167.929 172.754H122.218V183.676H167.929V172.754Z" fill="url(#paint19_linear_813_1411)"/>
<path d="M110.815 172.754L162.825 98.123H112.705L59.0732 172.754H110.815Z" fill="url(#paint20_linear_813_1411)"/>
<path d="M173.573 169.015H127.861V172.754H173.573V169.015Z" fill="url(#paint21_linear_813_1411)"/>
<path d="M173.573 198.109V183.676H127.862V198.109H93.1528L103.204 183.676H51.2206L35.9434 204.943V236.49H126.401V269.242H173.573V236.49H198.995V198.109H173.573Z" fill="url(#paint22_linear_813_1411)"/>
<path d="M310.263 169.002C310.754 173.9 310.986 178.82 310.96 183.743C310.96 200.843 308.552 213.35 303.736 221.266C298.921 229.182 292.444 233.13 284.305 233.113C275.996 233.113 269.438 229.164 264.632 221.266C264.511 221.078 264.404 220.877 264.297 220.69H214.123C215.314 224.397 216.755 228.02 218.438 231.531C224.871 244.932 233.805 255.157 245.24 262.206C257.082 269.097 270.538 272.727 284.238 272.727C297.938 272.727 311.394 269.097 323.235 262.206C334.635 255.211 343.569 244.986 350.037 231.531C356.506 218.077 359.699 202.147 359.619 183.743C359.626 178.842 359.376 173.943 358.869 169.069L310.263 169.002Z" fill="url(#paint23_linear_813_1411)"/>
<path d="M259.634 207.865C258.044 199.925 257.303 191.839 257.423 183.743C257.423 166.634 259.831 154.126 264.646 146.22C269.462 138.313 276.019 134.36 284.319 134.36C292.467 134.36 298.944 138.313 303.751 146.22C305.596 149.369 307.003 152.755 307.932 156.284H356.833C355.335 149.264 353.028 142.442 349.958 135.954C343.525 122.553 334.591 112.328 323.156 105.279C311.314 98.3889 297.859 94.759 284.158 94.759C270.458 94.759 257.002 98.3889 245.161 105.279C233.761 112.293 224.827 122.518 218.359 135.954C211.89 149.391 208.697 165.321 208.777 183.743C208.737 191.832 209.446 199.907 210.894 207.865H259.634Z" fill="url(#paint24_linear_813_1411)"/>
<path d="M209.419 220.636H259.62C257.419 216.642 255.842 212.335 254.943 207.865H206.189C206.988 212.187 208.067 216.453 209.419 220.636Z" fill="url(#paint25_linear_813_1411)"/>
<path d="M352.141 156.217H303.227C304.375 160.404 305.168 164.681 305.599 169.002H354.204C353.752 164.705 353.063 160.437 352.141 156.217Z" fill="url(#paint26_linear_813_1411)"/>
<path d="M418.344 136.129H469.281L478.207 123.331H427.537L418.344 136.129Z" fill="url(#paint27_linear_813_1411)"/>
<path d="M506.535 241.234H459.35V254.032H506.535V241.234Z" fill="url(#paint28_linear_813_1411)"/>
<path d="M483.833 123.612L501.402 98.3911H451.295L433.163 123.612H483.833Z" fill="url(#paint29_linear_813_1411)"/>
<path d="M512.164 254.313H464.979V269.523H512.164V254.313Z" fill="url(#paint30_linear_813_1411)"/>
<path d="M464.977 241.515H512.163V236.758H537.585V198.377H512.163V169.283H466.452V198.377H431.729L474.921 136.41H423.97L374.533 205.225V236.758H464.977V241.515Z" fill="url(#paint31_linear_813_1411)"/>
<path d="M27.7393 172.754V183.676H79.7088L87.3206 172.754H27.7393Z" fill="url(#paint32_linear_813_1411)"/>
<path d="M150.078 172.754H104.367V183.676H150.078V172.754Z" fill="url(#paint33_linear_813_1411)"/>
<path d="M92.9634 172.754L144.973 98.123H94.853L41.2217 172.754H92.9634Z" fill="url(#paint34_linear_813_1411)"/>
<path d="M155.721 169.015H110.01V172.754H155.721V169.015Z" fill="url(#paint35_linear_813_1411)"/>
<path d="M155.72 198.109V183.676H110.009V198.109H75.3002L85.351 183.676H33.3681L18.0908 204.943V236.49H108.548V269.242H155.72V236.49H181.156V198.109H155.72Z" fill="url(#paint36_linear_813_1411)"/>
<path d="M292.412 169.002C292.905 173.877 293.142 178.775 293.122 183.676C293.122 200.776 290.715 213.283 285.899 221.199C281.084 229.115 274.606 233.063 266.468 233.046C258.159 233.046 251.601 229.097 246.795 221.199C246.674 221.011 246.567 220.81 246.46 220.623H196.272C197.469 224.328 198.91 227.95 200.588 231.464C207.02 244.865 215.954 255.09 227.39 262.139C239.231 269.03 252.687 272.66 266.387 272.66C280.087 272.66 293.543 269.03 305.384 262.139C316.784 255.144 325.718 244.919 332.187 231.464C338.655 218.009 341.853 202.102 341.782 183.743C341.789 178.842 341.539 173.943 341.031 169.069L292.412 169.002Z" fill="url(#paint37_linear_813_1411)"/>
<path d="M241.782 207.865C240.192 199.925 239.451 191.839 239.571 183.743C239.571 166.634 241.979 154.126 246.794 146.22C251.61 138.313 258.167 134.36 266.467 134.36C274.615 134.36 281.092 138.313 285.899 146.22C287.744 149.369 289.151 152.755 290.08 156.284H338.98C337.483 149.264 335.176 142.442 332.106 135.954C325.673 122.553 316.739 112.328 305.303 105.279C293.462 98.3889 280.006 94.759 266.306 94.759C252.606 94.759 239.15 98.3889 227.309 105.279C215.909 112.293 206.975 122.518 200.507 135.954C194.038 149.391 190.844 165.321 190.925 183.743C190.881 191.831 191.585 199.906 193.029 207.865H241.782Z" fill="url(#paint38_linear_813_1411)"/>
<path d="M191.57 220.636H241.77C239.567 216.634 237.99 212.318 237.093 207.838H188.34C189.138 212.17 190.216 216.445 191.57 220.636Z" fill="url(#paint39_linear_813_1411)"/>
<path d="M334.291 156.217H285.377V169.002H336.301C335.866 164.706 335.195 160.438 334.291 156.217Z" fill="url(#paint40_linear_813_1411)"/>
<path d="M400.492 136.129H451.43L460.355 123.331H400.492V136.129Z" fill="url(#paint41_linear_813_1411)"/>
<path d="M488.686 241.234H441.501V254.032H488.686V241.234Z" fill="url(#paint42_linear_813_1411)"/>
<path d="M465.983 123.612L483.566 98.3911H433.445L415.327 123.612H465.983Z" fill="url(#paint43_linear_813_1411)"/>
<path d="M494.314 254.313H447.129V269.523H494.314V254.313Z" fill="url(#paint44_linear_813_1411)"/>
<path d="M447.128 241.515H494.313V236.758H519.735V198.377H494.313V169.283H448.602V198.377H413.88L457.071 136.41H406.12L356.684 205.225V236.758H447.128V241.515Z" fill="url(#paint45_linear_813_1411)"/>
<path d="M159.473 172.754H113.762V183.676H159.473V172.754Z" fill="white"/>
<path d="M15.6793 172.754H0V183.676H15.6793V172.754Z" fill="white"/>
<path d="M102.357 172.754L154.367 98.123H104.247L50.6152 172.754H102.357Z" fill="white"/>
<path d="M165.115 169.015H119.403V172.754H165.115V169.015Z" fill="white"/>
<path d="M165.115 198.109V183.676H119.404V198.109H84.6948L94.7456 183.676H42.7626L27.4854 204.943V236.49H117.943V269.242H165.115V236.49H190.55V198.109H165.115Z" fill="white"/>
<path d="M301.806 169.002C302.301 173.899 302.538 178.82 302.516 183.743C302.516 200.843 300.108 213.35 295.293 221.266C290.477 229.182 284 233.13 275.861 233.113C267.552 233.113 260.995 229.164 256.188 221.266C256.068 221.078 255.974 220.877 255.853 220.69H205.666C206.862 224.395 208.304 228.017 209.981 231.531C216.414 244.932 225.348 255.157 236.783 262.206C248.625 269.097 262.08 272.727 275.781 272.727C289.481 272.727 302.937 269.097 314.778 262.206C326.178 255.211 335.112 244.986 341.58 231.531C348.049 218.077 351.242 202.147 351.162 183.743C351.169 178.842 350.919 173.943 350.412 169.069L301.806 169.002Z" fill="white"/>
<path d="M251.178 207.865C249.593 199.925 248.856 191.839 248.98 183.743C248.98 166.634 251.383 154.126 256.19 146.22C260.997 138.313 267.554 134.36 275.863 134.36C284.011 134.36 290.488 138.313 295.294 146.22C297.14 149.369 298.546 152.755 299.476 156.284H348.376C346.879 149.264 344.572 142.442 341.502 135.954C335.069 122.553 326.135 112.328 314.699 105.279C302.858 98.3889 289.402 94.759 275.702 94.759C262.002 94.759 248.546 98.3889 236.705 105.279C225.305 112.293 216.371 122.518 209.903 135.954C203.434 149.391 200.24 165.321 200.321 183.743C200.272 191.831 200.972 199.906 202.411 207.865H251.178Z" fill="white"/>
<path d="M200.964 220.636H251.165C248.962 216.634 247.385 212.318 246.488 207.838H197.734C198.532 212.17 199.611 216.445 200.964 220.636Z" fill="white"/>
<path d="M277.335 156.217H270.836V169.015H277.335V156.217Z" fill="white"/>
<path d="M409.886 136.129H460.823L469.749 123.331H419.079L409.886 136.129Z" fill="white"/>
<path d="M434.157 241.234H422.149V254.032H434.157V241.234Z" fill="white"/>
<path d="M475.378 123.612L492.947 98.3911H442.84L424.722 123.612H475.378Z" fill="white"/>
<path d="M503.707 254.313H456.521V269.523H503.707V254.313Z" fill="white"/>
<path d="M456.522 241.515H503.708V236.758H529.13V198.377H503.708V169.283H457.996V198.377H423.274L466.466 136.41H415.515L366.078 205.225V236.758H456.522V241.515Z" fill="white"/>
<path d="M398.135 365.435H274.777V373.891H398.135V365.435Z" fill="url(#paint46_linear_813_1411)"/>
<path d="M255.882 364.685H248.136V372.431H255.882V364.685Z" fill="#0E1011"/>
<path d="M389.637 366.842H377.08V373.824H389.637V366.842Z" fill="#0E1011"/>
<path d="M449.795 345.923H416.266V352.905H449.795V345.923Z" fill="#FEFE00"/>
<path d="M226.089 376.893H205.666V383.875H226.089V376.893Z" fill="url(#paint47_linear_813_1411)"/>
<path d="M193.363 376.893H166.186V383.875H193.363V376.893Z" fill="#FEFE21"/>
<defs>
<linearGradient id="paint0_linear_813_1411" x1="243.464" y1="0" x2="243.464" y2="14.6876" gradientUnits="userSpaceOnUse">
<stop stop-color="#40F214"/>
<stop offset="1" stop-color="#15D028"/>
</linearGradient>
<linearGradient id="paint1_linear_813_1411" x1="313.68" y1="60.5122" x2="407.983" y2="60.5122" gradientUnits="userSpaceOnUse">
<stop stop-color="#96FF00"/>
<stop offset="0.508333" stop-color="#DEFF00"/>
<stop offset="1" stop-color="#9600FF"/>
</linearGradient>
<linearGradient id="paint2_linear_813_1411" x1="263.145" y1="70.259" x2="290.751" y2="70.259" gradientUnits="userSpaceOnUse">
<stop stop-color="#96FF00"/>
<stop offset="0.508333" stop-color="#DEFF00"/>
<stop offset="1" stop-color="#9600FF"/>
</linearGradient>
<linearGradient id="paint3_linear_813_1411" x1="235.706" y1="64.7006" x2="235.706" y2="75.6628" gradientUnits="userSpaceOnUse">
<stop stop-color="#40F214"/>
<stop offset="1" stop-color="#15D028"/>
</linearGradient>
<linearGradient id="paint4_linear_813_1411" x1="60.8145" y1="29.466" x2="72.4332" y2="29.466" gradientUnits="userSpaceOnUse">
<stop stop-color="#96FF00"/>
<stop offset="0.508333" stop-color="#DEFF00"/>
<stop offset="1" stop-color="#9600FF"/>
</linearGradient>
<linearGradient id="paint5_linear_813_1411" x1="218.987" y1="70.259" x2="227.953" y2="70.259" gradientUnits="userSpaceOnUse">
<stop stop-color="#96FF00"/>
<stop offset="0.508333" stop-color="#DEFF00"/>
<stop offset="1" stop-color="#9600FF"/>
</linearGradient>
<linearGradient id="paint6_linear_813_1411" x1="433.956" y1="60.5297" x2="457.167" y2="60.5297" gradientUnits="userSpaceOnUse">
<stop stop-color="#96FF00"/>
<stop offset="0.508333" stop-color="#DEFF00"/>
<stop offset="1" stop-color="#9600FF"/>
</linearGradient>
<linearGradient id="paint7_linear_813_1411" x1="450.687" y1="32.9399" x2="450.687" y2="36.7995" gradientUnits="userSpaceOnUse">
<stop stop-color="#40F214"/>
<stop offset="1" stop-color="#15D028"/>
</linearGradient>
<linearGradient id="paint8_linear_813_1411" x1="146.218" y1="298.457" x2="188.23" y2="298.457" gradientUnits="userSpaceOnUse">
<stop stop-color="#96FF00"/>
<stop offset="0.508333" stop-color="#DEFF00"/>
<stop offset="1" stop-color="#9600FF"/>
</linearGradient>
<linearGradient id="paint9_linear_813_1411" x1="171.413" y1="304.809" x2="171.413" y2="312.769" gradientUnits="userSpaceOnUse">
<stop stop-color="#40F214"/>
<stop offset="1" stop-color="#15D028"/>
</linearGradient>
<linearGradient id="paint10_linear_813_1411" x1="248.136" y1="347.881" x2="255.882" y2="347.881" gradientUnits="userSpaceOnUse">
<stop stop-color="#96FF00"/>
<stop offset="0.508333" stop-color="#DEFF00"/>
<stop offset="1" stop-color="#9600FF"/>
</linearGradient>
<linearGradient id="paint11_linear_813_1411" x1="158.119" y1="368.612" x2="165.865" y2="368.612" gradientUnits="userSpaceOnUse">
<stop stop-color="#96FF00"/>
<stop offset="0.508333" stop-color="#DEFF00"/>
<stop offset="1" stop-color="#9600FF"/>
</linearGradient>
<linearGradient id="paint12_linear_813_1411" x1="189.156" y1="322.419" x2="196.902" y2="322.419" gradientUnits="userSpaceOnUse">
<stop stop-color="#96FF00"/>
<stop offset="0.508333" stop-color="#DEFF00"/>
<stop offset="1" stop-color="#9600FF"/>
</linearGradient>
<linearGradient id="paint13_linear_813_1411" x1="212.716" y1="324.328" x2="220.462" y2="324.328" gradientUnits="userSpaceOnUse">
<stop stop-color="#96FF00"/>
<stop offset="0.508333" stop-color="#DEFF00"/>
<stop offset="1" stop-color="#9600FF"/>
</linearGradient>
<linearGradient id="paint14_linear_813_1411" x1="95.9385" y1="360.706" x2="103.684" y2="360.706" gradientUnits="userSpaceOnUse">
<stop stop-color="#96FF00"/>
<stop offset="0.508333" stop-color="#DEFF00"/>
<stop offset="1" stop-color="#9600FF"/>
</linearGradient>
<linearGradient id="paint15_linear_813_1411" x1="34.5742" y1="258.281" x2="42.3201" y2="258.281" gradientUnits="userSpaceOnUse">
<stop stop-color="#96FF00"/>
<stop offset="0.508333" stop-color="#DEFF00"/>
<stop offset="1" stop-color="#9600FF"/>
</linearGradient>
<linearGradient id="paint16_linear_813_1411" x1="186.731" y1="312.769" x2="186.731" y2="316.401" gradientUnits="userSpaceOnUse">
<stop stop-color="#40F214"/>
<stop offset="1" stop-color="#15D028"/>
</linearGradient>
<linearGradient id="paint17_linear_813_1411" x1="114.485" y1="303.553" x2="472.577" y2="303.553" gradientUnits="userSpaceOnUse">
<stop stop-color="#96FF00"/>
<stop offset="0.508333" stop-color="#DEFF00"/>
<stop offset="1" stop-color="#9600FF"/>
</linearGradient>
<linearGradient id="paint18_linear_813_1411" x1="45.5771" y1="178.292" x2="105.172" y2="178.292" gradientUnits="userSpaceOnUse">
<stop stop-color="#96FF00"/>
<stop offset="0.508333" stop-color="#DEFF00"/>
<stop offset="1" stop-color="#9600FF"/>
</linearGradient>
<linearGradient id="paint19_linear_813_1411" x1="122.218" y1="178.292" x2="167.929" y2="178.292" gradientUnits="userSpaceOnUse">
<stop stop-color="#96FF00"/>
<stop offset="0.508333" stop-color="#DEFF00"/>
<stop offset="1" stop-color="#9600FF"/>
</linearGradient>
<linearGradient id="paint20_linear_813_1411" x1="59.0732" y1="135.965" x2="162.825" y2="135.965" gradientUnits="userSpaceOnUse">
<stop stop-color="#96FF00"/>
<stop offset="0.508333" stop-color="#DEFF00"/>
<stop offset="1" stop-color="#9600FF"/>
</linearGradient>
<linearGradient id="paint21_linear_813_1411" x1="127.861" y1="170.911" x2="173.573" y2="170.911" gradientUnits="userSpaceOnUse">
<stop stop-color="#96FF00"/>
<stop offset="0.508333" stop-color="#DEFF00"/>
<stop offset="1" stop-color="#9600FF"/>
</linearGradient>
<linearGradient id="paint22_linear_813_1411" x1="35.9434" y1="227.062" x2="198.995" y2="227.062" gradientUnits="userSpaceOnUse">
<stop stop-color="#96FF00"/>
<stop offset="0.508333" stop-color="#DEFF00"/>
<stop offset="1" stop-color="#9600FF"/>
</linearGradient>
<linearGradient id="paint23_linear_813_1411" x1="214.123" y1="221.596" x2="359.621" y2="221.596" gradientUnits="userSpaceOnUse">
<stop stop-color="#96FF00"/>
<stop offset="0.508333" stop-color="#DEFF00"/>
<stop offset="1" stop-color="#9600FF"/>
</linearGradient>
<linearGradient id="paint24_linear_813_1411" x1="208.775" y1="152.109" x2="356.833" y2="152.109" gradientUnits="userSpaceOnUse">
<stop stop-color="#96FF00"/>
<stop offset="0.508333" stop-color="#DEFF00"/>
<stop offset="1" stop-color="#9600FF"/>
</linearGradient>
<linearGradient id="paint25_linear_813_1411" x1="206.189" y1="214.341" x2="259.62" y2="214.341" gradientUnits="userSpaceOnUse">
<stop stop-color="#96FF00"/>
<stop offset="0.508333" stop-color="#DEFF00"/>
<stop offset="1" stop-color="#9600FF"/>
</linearGradient>
<linearGradient id="paint26_linear_813_1411" x1="303.227" y1="162.699" x2="354.204" y2="162.699" gradientUnits="userSpaceOnUse">
<stop stop-color="#96FF00"/>
<stop offset="0.508333" stop-color="#DEFF00"/>
<stop offset="1" stop-color="#9600FF"/>
</linearGradient>
<linearGradient id="paint27_linear_813_1411" x1="418.344" y1="129.82" x2="478.207" y2="129.82" gradientUnits="userSpaceOnUse">
<stop stop-color="#96FF00"/>
<stop offset="0.508333" stop-color="#DEFF00"/>
<stop offset="1" stop-color="#9600FF"/>
</linearGradient>
<linearGradient id="paint28_linear_813_1411" x1="459.35" y1="247.723" x2="506.535" y2="247.723" gradientUnits="userSpaceOnUse">
<stop stop-color="#96FF00"/>
<stop offset="0.508333" stop-color="#DEFF00"/>
<stop offset="1" stop-color="#9600FF"/>
</linearGradient>
<linearGradient id="paint29_linear_813_1411" x1="433.163" y1="111.179" x2="501.402" y2="111.179" gradientUnits="userSpaceOnUse">
<stop stop-color="#96FF00"/>
<stop offset="0.508333" stop-color="#DEFF00"/>
<stop offset="1" stop-color="#9600FF"/>
</linearGradient>
<linearGradient id="paint30_linear_813_1411" x1="464.979" y1="262.025" x2="512.164" y2="262.025" gradientUnits="userSpaceOnUse">
<stop stop-color="#96FF00"/>
<stop offset="0.508333" stop-color="#DEFF00"/>
<stop offset="1" stop-color="#9600FF"/>
</linearGradient>
<linearGradient id="paint31_linear_813_1411" x1="374.533" y1="189.704" x2="537.585" y2="189.704" gradientUnits="userSpaceOnUse">
<stop stop-color="#96FF00"/>
<stop offset="0.508333" stop-color="#DEFF00"/>
<stop offset="1" stop-color="#9600FF"/>
</linearGradient>
<linearGradient id="paint32_linear_813_1411" x1="57.53" y1="172.754" x2="57.53" y2="183.676" gradientUnits="userSpaceOnUse">
<stop stop-color="#40F214"/>
<stop offset="1" stop-color="#15D028"/>
</linearGradient>
<linearGradient id="paint33_linear_813_1411" x1="127.223" y1="172.754" x2="127.223" y2="183.676" gradientUnits="userSpaceOnUse">
<stop stop-color="#40F214"/>
<stop offset="1" stop-color="#15D028"/>
</linearGradient>
<linearGradient id="paint34_linear_813_1411" x1="93.0974" y1="98.123" x2="93.0974" y2="172.754" gradientUnits="userSpaceOnUse">
<stop stop-color="#40F214"/>
<stop offset="1" stop-color="#15D028"/>
</linearGradient>
<linearGradient id="paint35_linear_813_1411" x1="132.865" y1="169.015" x2="132.865" y2="172.754" gradientUnits="userSpaceOnUse">
<stop stop-color="#40F214"/>
<stop offset="1" stop-color="#15D028"/>
</linearGradient>
<linearGradient id="paint36_linear_813_1411" x1="99.6233" y1="183.676" x2="99.6233" y2="269.242" gradientUnits="userSpaceOnUse">
<stop stop-color="#40F214"/>
<stop offset="1" stop-color="#15D028"/>
</linearGradient>
<linearGradient id="paint37_linear_813_1411" x1="269.028" y1="169.002" x2="269.028" y2="272.66" gradientUnits="userSpaceOnUse">
<stop stop-color="#40F214"/>
<stop offset="1" stop-color="#15D028"/>
</linearGradient>
<linearGradient id="paint38_linear_813_1411" x1="264.952" y1="94.759" x2="264.952" y2="207.865" gradientUnits="userSpaceOnUse">
<stop stop-color="#40F214"/>
<stop offset="1" stop-color="#15D028"/>
</linearGradient>
<linearGradient id="paint39_linear_813_1411" x1="215.055" y1="207.838" x2="215.055" y2="220.636" gradientUnits="userSpaceOnUse">
<stop stop-color="#40F214"/>
<stop offset="1" stop-color="#15D028"/>
</linearGradient>
<linearGradient id="paint40_linear_813_1411" x1="310.839" y1="156.217" x2="310.839" y2="169.002" gradientUnits="userSpaceOnUse">
<stop stop-color="#40F214"/>
<stop offset="1" stop-color="#15D028"/>
</linearGradient>
<linearGradient id="paint41_linear_813_1411" x1="430.424" y1="123.331" x2="430.424" y2="136.129" gradientUnits="userSpaceOnUse">
<stop stop-color="#40F214"/>
<stop offset="1" stop-color="#15D028"/>
</linearGradient>
<linearGradient id="paint42_linear_813_1411" x1="465.094" y1="241.234" x2="465.094" y2="254.032" gradientUnits="userSpaceOnUse">
<stop stop-color="#40F214"/>
<stop offset="1" stop-color="#15D028"/>
</linearGradient>
<linearGradient id="paint43_linear_813_1411" x1="449.446" y1="98.3911" x2="449.446" y2="123.612" gradientUnits="userSpaceOnUse">
<stop stop-color="#40F214"/>
<stop offset="1" stop-color="#15D028"/>
</linearGradient>
<linearGradient id="paint44_linear_813_1411" x1="470.722" y1="254.313" x2="470.722" y2="269.523" gradientUnits="userSpaceOnUse">
<stop stop-color="#40F214"/>
<stop offset="1" stop-color="#15D028"/>
</linearGradient>
<linearGradient id="paint45_linear_813_1411" x1="438.209" y1="136.41" x2="438.209" y2="241.515" gradientUnits="userSpaceOnUse">
<stop stop-color="#40F214"/>
<stop offset="1" stop-color="#15D028"/>
</linearGradient>
<linearGradient id="paint46_linear_813_1411" x1="274.777" y1="369.723" x2="398.135" y2="369.723" gradientUnits="userSpaceOnUse">
<stop stop-color="#96FF00"/>
<stop offset="0.508333" stop-color="#DEFF00"/>
<stop offset="1" stop-color="#9600FF"/>
</linearGradient>
<linearGradient id="paint47_linear_813_1411" x1="205.666" y1="380.433" x2="226.089" y2="380.433" gradientUnits="userSpaceOnUse">
<stop stop-color="#96FF00"/>
<stop offset="0.508333" stop-color="#DEFF00"/>
<stop offset="1" stop-color="#9600FF"/>
</linearGradient>
</defs>
</svg>
