<svg width="203" height="277" viewBox="0 0 203 277" fill="none" xmlns="http://www.w3.org/2000/svg">
<path opacity="0.7" d="M110.072 276.341C189.334 276.341 203 220.708 203 185.305V179.163C203 138.341 181.88 102.577 121.253 102.577H115.787C72.8012 102.577 56.8991 122.807 52.1782 128.587V126.059C52.1782 104.022 57.1476 57.7811 102.618 57.7811C137.403 57.7811 141.876 75.1214 143.864 81.9853H197.533V81.624C197.533 48.0272 182.128 0.341309 105.351 0.341309H97.8967C13.4169 0.341309 -0.000488281 93.1842 -0.000488281 136.535V144.844C-0.000488281 193.252 12.423 276.341 97.8967 276.341H110.072ZM59.1354 185.305C59.1354 172.299 66.0925 154.959 104.357 154.959C144.112 154.959 150.324 172.299 150.324 185.305V187.472C150.324 199.394 145.354 219.263 104.357 219.263C66.5895 219.263 59.1354 200.116 59.1354 187.111V185.305Z" fill="url(#paint0_linear_254_234)"/>
<defs>
<linearGradient id="paint0_linear_254_234" x1="101.5" y1="0.341309" x2="101.5" y2="276.341" gradientUnits="userSpaceOnUse">
<stop stop-color="#40F214"/>
<stop offset="1" stop-color="#15D028"/>
</linearGradient>
</defs>
</svg>
