<svg width="100" height="22" viewBox="0 0 100 22" fill="none" xmlns="http://www.w3.org/2000/svg">
<path d="M6.1807 5.82753V8.16302H14.907V11.0262H6.1807V16.391H2.55531V2.96435H15.3859V5.82753H6.1807ZM18.4836 16.391V2.96435H22.109V16.391H18.4836ZM25.5389 16.391V13.5864L34.363 5.90571H25.8027V2.96435H39.5714V5.42688L30.3467 13.4496H39.7668V16.391H25.5389Z" fill="url(#paint0_linear_254_250)"/>
<path d="M6.1807 5.82753V5.66076H6.01393V5.82753H6.1807ZM6.1807 8.16302H6.01393V8.3298H6.1807V8.16302ZM14.907 8.16302H15.0738V7.99625H14.907V8.16302ZM14.907 11.0262V11.193H15.0738V11.0262H14.907ZM6.1807 11.0262V10.8594H6.01393V11.0262H6.1807ZM6.1807 16.391V16.5578H6.34747V16.391H6.1807ZM2.55531 16.391H2.38854V16.5578H2.55531V16.391ZM2.55531 2.96435V2.79758H2.38854V2.96435H2.55531ZM15.3859 2.96435H15.5526V2.79758H15.3859V2.96435ZM15.3859 5.82753V5.9943H15.5526V5.82753H15.3859ZM6.01393 5.82753V8.16302H6.34747V5.82753H6.01393ZM6.1807 8.3298H14.907V7.99625H6.1807V8.3298ZM14.7403 8.16302V11.0262H15.0738V8.16302H14.7403ZM14.907 10.8594H6.1807V11.193H14.907V10.8594ZM6.01393 11.0262V16.391H6.34747V11.0262H6.01393ZM6.1807 16.2242H2.55531V16.5578H6.1807V16.2242ZM2.72209 16.391V2.96435H2.38854V16.391H2.72209ZM2.55531 3.13113H15.3859V2.79758H2.55531V3.13113ZM15.2191 2.96435V5.82753H15.5526V2.96435H15.2191ZM15.3859 5.66076H6.1807V5.9943H15.3859V5.66076ZM18.4836 16.391H18.3168V16.5578H18.4836V16.391ZM18.4836 2.96435V2.79758H18.3168V2.96435H18.4836ZM22.109 2.96435H22.2757V2.79758H22.109V2.96435ZM22.109 16.391V16.5578H22.2757V16.391H22.109ZM18.6503 16.391V2.96435H18.3168V16.391H18.6503ZM18.4836 3.13113H22.109V2.79758H18.4836V3.13113ZM21.9422 2.96435V16.391H22.2757V2.96435H21.9422ZM22.109 16.2242H18.4836V16.5578H22.109V16.2242ZM25.5389 16.391H25.3721V16.5578H25.5389V16.391ZM25.5389 13.5864L25.4294 13.4607L25.3721 13.5105V13.5864H25.5389ZM34.363 5.90571L34.4725 6.0315L34.8086 5.73893H34.363V5.90571ZM25.8027 5.90571H25.636V6.07248H25.8027V5.90571ZM25.8027 2.96435V2.79758H25.636V2.96435H25.8027ZM39.5714 2.96435H39.7382V2.79758H39.5714V2.96435ZM39.5714 5.42688L39.6808 5.55272L39.7382 5.50286V5.42688H39.5714ZM30.3467 13.4496L30.2372 13.3238L29.9008 13.6164H30.3467V13.4496ZM39.7668 13.4496H39.9336V13.2829H39.7668V13.4496ZM39.7668 16.391V16.5578H39.9336V16.391H39.7668ZM25.7057 16.391V13.5864H25.3721V16.391H25.7057ZM25.6484 13.7122L34.4725 6.0315L34.2535 5.77991L25.4294 13.4607L25.6484 13.7122ZM34.363 5.73893H25.8027V6.07248H34.363V5.73893ZM25.9695 5.90571V2.96435H25.636V5.90571H25.9695ZM25.8027 3.13113H39.5714V2.79758H25.8027V3.13113ZM39.4046 2.96435V5.42688H39.7382V2.96435H39.4046ZM39.462 5.30104L30.2372 13.3238L30.4561 13.5755L39.6808 5.55272L39.462 5.30104ZM30.3467 13.6164H39.7668V13.2829H30.3467V13.6164ZM39.6001 13.4496V16.391H39.9336V13.4496H39.6001ZM39.7668 16.2242H25.5389V16.5578H39.7668V16.2242Z" fill="url(#paint1_linear_254_250)"/>
<path d="M47.1036 16.391H43.4782V2.96435H52.5661C53.5433 2.96435 54.3706 3.06533 55.0481 3.26728C55.7322 3.46924 56.2859 3.75588 56.7094 4.12721C57.1393 4.49855 57.4488 4.94806 57.6377 5.47574C57.8331 5.99691 57.9309 6.57997 57.9309 7.22492C57.9309 7.79169 57.8494 8.2868 57.6866 8.71025C57.5302 9.1337 57.3152 9.49852 57.0416 9.80471C56.7745 10.1044 56.4618 10.3585 56.1035 10.5669C55.7452 10.7754 55.3674 10.948 54.97 11.0848L59.3673 16.391H55.1263L51.0612 11.4464H47.1036V16.391ZM54.2664 7.20537C54.2664 6.94479 54.2305 6.72329 54.1589 6.54088C54.0937 6.35847 53.9765 6.21189 53.8071 6.10114C53.6377 5.98388 53.4097 5.89919 53.1231 5.84707C52.8429 5.79496 52.4911 5.7689 52.0677 5.7689H47.1036V8.64185H52.0677C52.4911 8.64185 52.8429 8.61579 53.1231 8.56367C53.4097 8.51155 53.6377 8.43012 53.8071 8.31937C53.9765 8.20211 54.0937 8.05227 54.1589 7.86986C54.2305 7.68745 54.2664 7.46596 54.2664 7.20537ZM77.6604 11.8666C77.6604 12.5376 77.4943 13.1695 77.162 13.7623C76.8298 14.3552 76.3314 14.8731 75.6669 15.3161C75.0024 15.7591 74.1718 16.1109 73.1751 16.3714C72.1849 16.6255 71.0252 16.7526 69.6963 16.7526C68.3673 16.7526 67.2012 16.6255 66.1979 16.3714C65.2012 16.1109 64.3706 15.7591 63.7061 15.3161C63.0416 14.8731 62.5432 14.3552 62.211 13.7623C61.8787 13.1695 61.7126 12.5376 61.7126 11.8666V2.96435H65.3282V10.5669C65.3282 11.0164 65.3836 11.4431 65.4943 11.847C65.6116 12.2444 65.8266 12.593 66.1393 12.8926C66.4585 13.1923 66.9015 13.4301 67.4683 13.606C68.0415 13.7819 68.7842 13.8698 69.6963 13.8698C70.6018 13.8698 71.3379 13.7819 71.9047 13.606C72.4715 13.4301 72.9112 13.1923 73.2239 12.8926C73.5431 12.593 73.7581 12.2444 73.8689 11.847C73.9796 11.4431 74.035 11.0164 74.035 10.5669V2.96435H77.6604V11.8666ZM85.4095 8.08485L92.8362 2.96435H97.6929L88.6538 9.40406L98.2987 16.391H93.0121L85.4095 10.8112V16.391H81.7646V2.96435H85.4095V8.08485Z" fill="#161816"/>
<path d="M47.1036 16.391V16.5578H47.2703V16.391H47.1036ZM43.4782 16.391H43.3114V16.5578H43.4782V16.391ZM43.4782 2.96435V2.79758H43.3114V2.96435H43.4782ZM55.0481 3.26728L55.0005 3.42711L55.0009 3.42723L55.0481 3.26728ZM56.7094 4.12721L56.5994 4.25261L56.6004 4.25343L56.7094 4.12721ZM57.6377 5.47574L57.4807 5.53196L57.4815 5.5343L57.6377 5.47574ZM57.6866 8.71025L57.5309 8.65038L57.5301 8.65248L57.6866 8.71025ZM57.0416 9.80471L56.9173 9.69358L56.9171 9.69374L57.0416 9.80471ZM54.97 11.0848L54.9157 10.9271L54.6877 11.0056L54.8415 11.1912L54.97 11.0848ZM59.3673 16.391V16.5578H59.7221L59.4957 16.2846L59.3673 16.391ZM55.1263 16.391L54.9975 16.4969L55.0475 16.5578H55.1263V16.391ZM51.0612 11.4464L51.19 11.3405L51.14 11.2796H51.0612V11.4464ZM47.1036 11.4464V11.2796H46.9368V11.4464H47.1036ZM54.1589 6.54088L54.0018 6.597L54.0037 6.60186L54.1589 6.54088ZM53.8071 6.10114L53.7121 6.23831L53.7158 6.24073L53.8071 6.10114ZM53.1231 5.84707L53.0926 6.01104L53.0932 6.01116L53.1231 5.84707ZM47.1036 5.7689V5.60212H46.9368V5.7689H47.1036ZM47.1036 8.64185H46.9368V8.80862H47.1036V8.64185ZM53.1231 8.56367L53.0932 8.39959L53.0926 8.39971L53.1231 8.56367ZM53.8071 8.31937L53.8984 8.45901L53.902 8.45649L53.8071 8.31937ZM54.1589 7.86986L54.0036 7.80885L54.0018 7.81377L54.1589 7.86986ZM47.1036 16.2242H43.4782V16.5578H47.1036V16.2242ZM43.6449 16.391V2.96435H43.3114V16.391H43.6449ZM43.4782 3.13113H52.5661V2.79758H43.4782V3.13113ZM52.5661 3.13113C53.5328 3.13113 54.3431 3.23114 55.0005 3.42711L55.0958 3.10746C54.3982 2.89951 53.5537 2.79758 52.5661 2.79758V3.13113ZM55.0009 3.42723C55.6678 3.62411 56.1983 3.90085 56.5994 4.2526L56.8193 4.00182C56.3735 3.61091 55.7966 3.31436 55.0954 3.10733L55.0009 3.42723ZM56.6004 4.25343C57.0089 4.60623 57.3016 5.03174 57.4807 5.53196L57.7947 5.41953C57.596 4.86437 57.2698 4.39086 56.8184 4.00099L56.6004 4.25343ZM57.4815 5.5343C57.6689 6.03403 57.7641 6.59684 57.7641 7.22492H58.0976C58.0976 6.56309 57.9973 5.95979 57.7939 5.41718L57.4815 5.5343ZM57.7641 7.22492C57.7641 7.77613 57.6848 8.25014 57.5309 8.65038L57.8422 8.77012C58.014 8.32346 58.0976 7.80725 58.0976 7.22492H57.7641ZM57.5301 8.65248C57.3803 9.05824 57.1756 9.40449 56.9173 9.69358L57.166 9.91583C57.4549 9.59255 57.6801 9.20916 57.843 8.76802L57.5301 8.65248ZM56.9171 9.69374C56.6621 9.97985 56.3632 10.2229 56.0196 10.4228L56.1874 10.7111C56.5604 10.494 56.8869 10.2289 57.1661 9.91567L56.9171 9.69374ZM56.0196 10.4228C55.6709 10.6257 55.3029 10.7938 54.9157 10.9271L55.0242 11.2425C55.4318 11.1022 55.8195 10.9251 56.1874 10.7111L56.0196 10.4228ZM54.8415 11.1912L59.2389 16.4974L59.4957 16.2846L55.0984 10.9784L54.8415 11.1912ZM59.3673 16.2242H55.1263V16.5578H59.3673V16.2242ZM55.2551 16.2851L51.19 11.3405L50.9324 11.5523L54.9975 16.4969L55.2551 16.2851ZM51.0612 11.2796H47.1036V11.6132H51.0612V11.2796ZM46.9368 11.4464V16.391H47.2703V11.4464H46.9368ZM54.4332 7.20537C54.4332 6.93041 54.3955 6.68698 54.3141 6.4799L54.0037 6.60186C54.0656 6.7596 54.0996 6.95917 54.0996 7.20537H54.4332ZM54.3159 6.48479C54.238 6.26651 54.0967 6.09126 53.8984 5.96156L53.7158 6.24073C53.8562 6.33252 53.9495 6.45044 54.0018 6.59697L54.3159 6.48479ZM53.902 5.96402C53.7068 5.82885 53.4539 5.73772 53.1529 5.68299L53.0932 6.01116C53.3655 6.06066 53.5687 6.13891 53.7122 6.23826L53.902 5.96402ZM53.1536 5.68311C52.8598 5.62846 52.497 5.60212 52.0677 5.60212V5.93567C52.4853 5.93567 52.8261 5.96145 53.0926 6.01103L53.1536 5.68311ZM52.0677 5.60212H47.1036V5.93567H52.0677V5.60212ZM46.9368 5.7689V8.64185H47.2703V5.7689H46.9368ZM47.1036 8.80862H52.0677V8.47507H47.1036V8.80862ZM52.0677 8.80862C52.497 8.80862 52.8598 8.78229 53.1536 8.72763L53.0926 8.39971C52.8261 8.44929 52.4853 8.47507 52.0677 8.47507V8.80862ZM53.1529 8.72776C53.4526 8.67327 53.7041 8.58601 53.8984 8.45896L53.7158 8.17979C53.5714 8.27424 53.3668 8.34984 53.0932 8.39959L53.1529 8.72776ZM53.902 8.45649C54.0981 8.32072 54.2383 8.14335 54.3159 7.92596L54.0018 7.81377C53.9492 7.96119 53.8548 8.0835 53.7122 8.18225L53.902 8.45649ZM54.3141 7.93085C54.3955 7.72377 54.4332 7.48034 54.4332 7.20537H54.0996C54.0996 7.45158 54.0656 7.65114 54.0037 7.80888L54.3141 7.93085ZM73.1751 16.3714L73.2165 16.533L73.2173 16.5328L73.1751 16.3714ZM66.1979 16.3714L66.1557 16.5328L66.157 16.5331L66.1979 16.3714ZM62.211 13.7623L62.0655 13.8439L62.211 13.7623ZM61.7126 2.96435V2.79758H61.5458V2.96435H61.7126ZM65.3282 2.96435H65.495V2.79758H65.3282V2.96435ZM65.4943 11.847L65.3335 11.8912L65.3344 11.8942L65.4943 11.847ZM66.1393 12.8926L66.0239 13.0131L66.0251 13.0142L66.1393 12.8926ZM67.4683 13.606L67.4188 13.7653L67.4193 13.7654L67.4683 13.606ZM73.2239 12.8926L73.1098 12.771L73.1085 12.7722L73.2239 12.8926ZM73.8689 11.847L74.0295 11.8918L74.0297 11.8911L73.8689 11.847ZM74.035 2.96435V2.79758H73.8682V2.96435H74.035ZM77.6604 2.96435H77.8272V2.79758H77.6604V2.96435ZM77.4936 11.8666C77.4936 12.5087 77.335 13.1125 77.0165 13.6808L77.3075 13.8439C77.6535 13.2265 77.8272 12.5665 77.8272 11.8666H77.4936ZM77.0165 13.6808C76.6993 14.2469 76.2208 14.7464 75.5744 15.1773L75.7594 15.4548C76.442 14.9998 76.9603 14.4634 77.3075 13.8439L77.0165 13.6808ZM75.5744 15.1773C74.9291 15.6076 74.1166 15.9529 73.1329 16.2101L73.2173 16.5328C74.227 16.2688 75.0758 15.9106 75.7594 15.4548L75.5744 15.1773ZM73.1336 16.2099C72.1603 16.4596 71.0152 16.5858 69.6963 16.5858V16.9193C71.0353 16.9193 72.2094 16.7914 73.2165 16.533L73.1336 16.2099ZM69.6963 16.5858C68.3774 16.5858 67.2256 16.4597 66.2389 16.2098L66.157 16.5331C67.1768 16.7914 68.3572 16.9193 69.6963 16.9193V16.5858ZM66.2401 16.2101C65.2563 15.9529 64.4439 15.6076 63.7986 15.1773L63.6136 15.4548C64.2972 15.9106 65.146 16.2688 66.1557 16.5328L66.2401 16.2101ZM63.7986 15.1773C63.1522 14.7464 62.6737 14.2469 62.3564 13.6808L62.0655 13.8439C62.4127 14.4634 62.931 14.9998 63.6136 15.4548L63.7986 15.1773ZM62.3564 13.6808C62.038 13.1125 61.8794 12.5087 61.8794 11.8666H61.5458C61.5458 12.5665 61.7195 13.2265 62.0655 13.8439L62.3564 13.6808ZM61.8794 11.8666V2.96435H61.5458V11.8666H61.8794ZM61.7126 3.13113H65.3282V2.79758H61.7126V3.13113ZM65.1614 2.96435V10.5669H65.495V2.96435H65.1614ZM65.1614 10.5669C65.1614 11.0302 65.2185 11.4719 65.3335 11.8911L65.6552 11.8029C65.5486 11.4144 65.495 11.0026 65.495 10.5669H65.1614ZM65.3344 11.8942C65.4602 12.3208 65.6912 12.6942 66.0239 13.013L66.2547 12.7722C65.962 12.4917 65.7629 12.1681 65.6543 11.7998L65.3344 11.8942ZM66.0251 13.0142C66.3681 13.3362 66.8361 13.5844 67.4188 13.7653L67.5177 13.4467C66.9669 13.2758 66.5489 13.0484 66.2534 12.771L66.0251 13.0142ZM67.4193 13.7654C68.0145 13.948 68.7753 14.0366 69.6963 14.0366V13.7031C68.7931 13.7031 68.0686 13.6158 67.5172 13.4466L67.4193 13.7654ZM69.6963 14.0366C70.6107 14.0366 71.3653 13.948 71.9542 13.7653L71.8553 13.4467C71.3106 13.6158 70.5929 13.7031 69.6963 13.7031V14.0366ZM71.9542 13.7653C72.537 13.5844 73.0024 13.336 73.3393 13.013L73.1085 12.7722C72.8201 13.0486 72.406 13.2758 71.8553 13.4467L71.9542 13.7653ZM73.3381 13.0142C73.6781 12.695 73.9101 12.3204 74.0295 11.8918L73.7082 11.8023C73.6062 12.1685 73.4082 12.4909 73.1098 12.771L73.3381 13.0142ZM74.0297 11.8911C74.1447 11.4719 74.2018 11.0302 74.2018 10.5669H73.8682C73.8682 11.0026 73.8146 11.4144 73.708 11.8029L74.0297 11.8911ZM74.2018 10.5669V2.96435H73.8682V10.5669H74.2018ZM74.035 3.13113H77.6604V2.79758H74.035V3.13113ZM77.4936 2.96435V11.8666H77.8272V2.96435H77.4936ZM85.4095 8.08485H85.2428V8.40241L85.5042 8.22215L85.4095 8.08485ZM92.8362 2.96435V2.79758H92.7843L92.7415 2.82705L92.8362 2.96435ZM97.6929 2.96435L97.7896 3.10018L98.2144 2.79758H97.6929V2.96435ZM88.6538 9.40406L88.557 9.26823L88.368 9.40293L88.556 9.53912L88.6538 9.40406ZM98.2987 16.391V16.5578H98.8132L98.3966 16.2559L98.2987 16.391ZM93.0121 16.391L92.9134 16.5254L92.9575 16.5578H93.0121V16.391ZM85.4095 10.8112L85.5082 10.6768L85.2428 10.4819V10.8112H85.4095ZM85.4095 16.391V16.5578H85.5763V16.391H85.4095ZM81.7646 16.391H81.5978V16.5578H81.7646V16.391ZM81.7646 2.96435V2.79758H81.5978V2.96435H81.7646ZM85.4095 2.96435H85.5763V2.79758H85.4095V2.96435ZM85.5042 8.22215L92.9309 3.10166L92.7415 2.82705L85.3149 7.94754L85.5042 8.22215ZM92.8362 3.13113H97.6929V2.79758H92.8362V3.13113ZM97.5961 2.82852L88.557 9.26823L88.7506 9.53989L97.7896 3.10018L97.5961 2.82852ZM88.556 9.53912L98.2009 16.5261L98.3966 16.2559L88.7517 9.269L88.556 9.53912ZM98.2987 16.2242H93.0121V16.5578H98.2987V16.2242ZM93.1108 16.2565L85.5082 10.6768L85.3109 10.9457L92.9134 16.5254L93.1108 16.2565ZM85.2428 10.8112V16.391H85.5763V10.8112H85.2428ZM85.4095 16.2242H81.7646V16.5578H85.4095V16.2242ZM81.9314 16.391V2.96435H81.5978V16.391H81.9314ZM81.7646 3.13113H85.4095V2.79758H81.7646V3.13113ZM85.2428 2.96435V8.08485H85.5763V2.96435H85.2428Z" fill="#161816"/>
<defs>
<linearGradient id="paint0_linear_254_250" x1="21.2889" y1="0.390991" x2="21.2889" y2="21.8756" gradientUnits="userSpaceOnUse">
<stop stop-color="#40F214"/>
<stop offset="1" stop-color="#15D028"/>
</linearGradient>
<linearGradient id="paint1_linear_254_250" x1="21.2889" y1="0.390991" x2="21.2889" y2="21.8756" gradientUnits="userSpaceOnUse">
<stop stop-color="#40F214"/>
<stop offset="1" stop-color="#15D028"/>
</linearGradient>
</defs>
</svg>
