<svg width="55" height="24" viewBox="0 0 55 24" fill="none" xmlns="http://www.w3.org/2000/svg">
<path d="M7.69125 6.81187V9.94875H19.4119V13.7944H7.69125V21H2.82188V2.96625H20.055V6.81187H7.69125ZM24.2156 21V2.96625H29.085V21H24.2156ZM33.6919 21V17.2331L45.5438 6.91687H34.0463V2.96625H52.5394V6.27375L40.1494 17.0494H52.8019V21H33.6919Z" fill="url(#paint0_linear_429_1225)"/>
<path d="M7.69125 6.81187V6.58787H7.46725V6.81187H7.69125ZM7.69125 9.94875H7.46725V10.1727H7.69125V9.94875ZM19.4119 9.94875H19.6359V9.72475H19.4119V9.94875ZM19.4119 13.7944V14.0184H19.6359V13.7944H19.4119ZM7.69125 13.7944V13.5704H7.46725V13.7944H7.69125ZM7.69125 21V21.224H7.91525V21H7.69125ZM2.82188 21H2.59788V21.224H2.82188V21ZM2.82188 2.96625V2.74225H2.59788V2.96625H2.82188ZM20.055 2.96625H20.279V2.74225H20.055V2.96625ZM20.055 6.81187V7.03587H20.279V6.81187H20.055ZM7.46725 6.81187V9.94875H7.91525V6.81187H7.46725ZM7.69125 10.1727H19.4119V9.72475H7.69125V10.1727ZM19.1879 9.94875V13.7944H19.6359V9.94875H19.1879ZM19.4119 13.5704H7.69125V14.0184H19.4119V13.5704ZM7.46725 13.7944V21H7.91525V13.7944H7.46725ZM7.69125 20.776H2.82188V21.224H7.69125V20.776ZM3.04588 21V2.96625H2.59788V21H3.04588ZM2.82188 3.19025H20.055V2.74225H2.82188V3.19025ZM19.831 2.96625V6.81187H20.279V2.96625H19.831ZM20.055 6.58787H7.69125V7.03587H20.055V6.58787ZM24.2156 21H23.9916V21.224H24.2156V21ZM24.2156 2.96625V2.74225H23.9916V2.96625H24.2156ZM29.085 2.96625H29.309V2.74225H29.085V2.96625ZM29.085 21V21.224H29.309V21H29.085ZM24.4396 21V2.96625H23.9916V21H24.4396ZM24.2156 3.19025H29.085V2.74225H24.2156V3.19025ZM28.861 2.96625V21H29.309V2.96625H28.861ZM29.085 20.776H24.2156V21.224H29.085V20.776ZM33.6919 21H33.4679V21.224H33.6919V21ZM33.6919 17.2331L33.5448 17.0642L33.4679 17.1311V17.2331H33.6919ZM45.5438 6.91687L45.6908 7.08583L46.1423 6.69287H45.5438V6.91687ZM34.0463 6.91687H33.8223V7.14087H34.0463V6.91687ZM34.0463 2.96625V2.74225H33.8223V2.96625H34.0463ZM52.5394 2.96625H52.7634V2.74225H52.5394V2.96625ZM52.5394 6.27375L52.6864 6.44277L52.7634 6.3758V6.27375H52.5394ZM40.1494 17.0494L40.0024 16.8804L39.5505 17.2734H40.1494V17.0494ZM52.8019 17.0494H53.0259V16.8254H52.8019V17.0494ZM52.8019 21V21.224H53.0259V21H52.8019ZM33.9159 21V17.2331H33.4679V21H33.9159ZM33.8389 17.4021L45.6908 7.08583L45.3967 6.74792L33.5448 17.0642L33.8389 17.4021ZM45.5438 6.69287H34.0463V7.14087H45.5438V6.69287ZM34.2703 6.91687V2.96625H33.8223V6.91687H34.2703ZM34.0463 3.19025H52.5394V2.74225H34.0463V3.19025ZM52.3154 2.96625V6.27375H52.7634V2.96625H52.3154ZM52.3924 6.10473L40.0024 16.8804L40.2964 17.2184L52.6864 6.44277L52.3924 6.10473ZM40.1494 17.2734H52.8019V16.8254H40.1494V17.2734ZM52.5779 17.0494V21H53.0259V17.0494H52.5779ZM52.8019 20.776H33.6919V21.224H52.8019V20.776Z" fill="url(#paint1_linear_429_1225)"/>
<defs>
<linearGradient id="paint0_linear_429_1225" x1="27.5" y1="0" x2="27.5" y2="24" gradientUnits="userSpaceOnUse">
<stop stop-color="#40F214"/>
<stop offset="1" stop-color="#15D028"/>
</linearGradient>
<linearGradient id="paint1_linear_429_1225" x1="27.5" y1="0" x2="27.5" y2="24" gradientUnits="userSpaceOnUse">
<stop stop-color="#40F214"/>
<stop offset="1" stop-color="#15D028"/>
</linearGradient>
</defs>
</svg>
