<svg width="17" height="17" viewBox="0 0 17 17" fill="none" xmlns="http://www.w3.org/2000/svg">
<path d="M8.61518 5.90489C7.12162 5.90489 5.90276 7.12378 5.90276 8.61737C5.90276 10.111 7.12162 11.3298 8.61518 11.3298C10.1087 11.3298 11.3276 10.111 11.3276 8.61737C11.3276 7.12378 10.1087 5.90489 8.61518 5.90489ZM16.7504 8.61737C16.7504 7.49412 16.7606 6.38105 16.6975 5.25984C16.6344 3.95752 16.3374 2.80172 15.3851 1.8494C14.4307 0.895047 13.277 0.599991 11.9747 0.53691C10.8515 0.473829 9.73841 0.484004 8.61722 0.484004C7.49399 0.484004 6.38094 0.473829 5.25975 0.53691C3.95746 0.599991 2.80167 0.897082 1.84937 1.8494C0.895039 2.80375 0.599989 3.95752 0.536909 5.25984C0.47383 6.38309 0.484004 7.49616 0.484004 8.61737C0.484004 9.73858 0.47383 10.8537 0.536909 11.9749C0.599989 13.2772 0.897074 14.433 1.84937 15.3853C2.80371 16.3397 3.95746 16.6347 5.25975 16.6978C6.38298 16.7609 7.49603 16.7507 8.61722 16.7507C9.74044 16.7507 10.8535 16.7609 11.9747 16.6978C13.277 16.6347 14.4328 16.3377 15.3851 15.3853C16.3394 14.431 16.6344 13.2772 16.6975 11.9749C16.7626 10.8537 16.7504 9.74062 16.7504 8.61737ZM8.61518 12.7909C6.30565 12.7909 4.44175 10.9269 4.44175 8.61737C4.44175 6.30779 6.30565 4.44386 8.61518 4.44386C10.9247 4.44386 12.7886 6.30779 12.7886 8.61737C12.7886 10.9269 10.9247 12.7909 8.61518 12.7909ZM12.9595 5.24763C12.4203 5.24763 11.9849 4.81217 11.9849 4.27293C11.9849 3.73369 12.4203 3.29823 12.9595 3.29823C13.4988 3.29823 13.9342 3.73369 13.9342 4.27293C13.9344 4.40097 13.9093 4.52779 13.8604 4.64612C13.8114 4.76445 13.7396 4.87196 13.6491 4.9625C13.5586 5.05305 13.4511 5.12484 13.3327 5.17376C13.2144 5.22269 13.0876 5.24779 12.9595 5.24763Z" fill="url(#paint0_linear_404_440)"/>
<defs>
<linearGradient id="paint0_linear_404_440" x1="8.61737" y1="0.483398" x2="8.61737" y2="16.7513" gradientUnits="userSpaceOnUse">
<stop stop-color="#40F214"/>
<stop offset="1" stop-color="#15D028"/>
</linearGradient>
</defs>
</svg>
