<svg width="23" height="21" viewBox="0 0 23 21" fill="none" xmlns="http://www.w3.org/2000/svg">
<path d="M22.4435 4.30353C22.0867 3.46138 21.5721 2.69823 20.9287 2.05681C20.2847 1.41347 19.5255 0.902212 18.6923 0.550847C17.8283 0.185057 16.9016 -0.0021756 15.9661 1.90724e-05C14.6535 1.90724e-05 13.3729 0.366333 12.2601 1.05826C11.9938 1.22378 11.7409 1.40558 11.5013 1.60366C11.2617 1.40558 11.0088 1.22378 10.7425 1.05826C9.62969 0.366333 8.3491 1.90724e-05 7.03657 1.90724e-05C6.09144 1.90724e-05 5.17559 0.184533 4.31033 0.550847C3.47436 0.903594 2.72091 1.41101 2.07396 2.05681C1.42967 2.69751 0.914988 3.46084 0.559092 4.30353C0.189026 5.17997 0 6.11068 0 7.06853C0 7.9721 0.181039 8.91366 0.540455 9.87151C0.8413 10.672 1.2726 11.5023 1.8237 12.3407C2.69695 13.6676 3.89767 15.0515 5.38858 16.4543C7.85923 18.7797 10.3059 20.3861 10.4098 20.4512L11.0407 20.8637C11.3203 21.0455 11.6797 21.0455 11.9592 20.8637L12.5902 20.4512C12.694 20.3834 15.1381 18.7797 17.6114 16.4543C19.1023 15.0515 20.303 13.6676 21.1763 12.3407C21.7274 11.5023 22.1613 10.672 22.4595 9.87151C22.8189 8.91366 23 7.9721 23 7.06853C23.0026 6.11068 22.8136 5.17997 22.4435 4.30353ZM11.5013 18.7173C11.5013 18.7173 18 18.5906 18 13.1312C18 10.3662 16.2312 14 19 14C20.9462 14 10.6707 3.16932 11.5013 4.78652C12.332 3.16932 6.05383 7.5 8 7.5C10.7688 7.5 11.9592 7.10651 11.9592 9.87151C11.9592 15.3309 11.5013 18.7173 11.5013 18.7173Z" fill="url(#paint0_linear_800_781)"/>
<defs>
<linearGradient id="paint0_linear_800_781" x1="11.5" y1="0" x2="11.5" y2="21" gradientUnits="userSpaceOnUse">
<stop stop-color="#40F214"/>
<stop offset="1" stop-color="#15D028"/>
</linearGradient>
</defs>
</svg>
