<svg width="132" height="24" viewBox="0 0 132 24" fill="none" xmlns="http://www.w3.org/2000/svg">
<path d="M7.69125 6.81187V9.94875H19.4119V13.7944H7.69125V21H2.82188V2.96625H20.055V6.81187H7.69125ZM24.2156 21V2.96625H29.085V21H24.2156ZM33.6919 21V17.2331L45.5438 6.91687H34.0463V2.96625H52.5394V6.27375L40.1494 17.0494H52.8019V21H33.6919Z" fill="url(#paint0_linear_238_654)"/>
<path d="M7.69125 6.81187V6.58787H7.46725V6.81187H7.69125ZM7.69125 9.94875H7.46725V10.1727H7.69125V9.94875ZM19.4119 9.94875H19.6359V9.72475H19.4119V9.94875ZM19.4119 13.7944V14.0184H19.6359V13.7944H19.4119ZM7.69125 13.7944V13.5704H7.46725V13.7944H7.69125ZM7.69125 21V21.224H7.91525V21H7.69125ZM2.82188 21H2.59788V21.224H2.82188V21ZM2.82188 2.96625V2.74225H2.59788V2.96625H2.82188ZM20.055 2.96625H20.279V2.74225H20.055V2.96625ZM20.055 6.81187V7.03587H20.279V6.81187H20.055ZM7.46725 6.81187V9.94875H7.91525V6.81187H7.46725ZM7.69125 10.1727H19.4119V9.72475H7.69125V10.1727ZM19.1879 9.94875V13.7944H19.6359V9.94875H19.1879ZM19.4119 13.5704H7.69125V14.0184H19.4119V13.5704ZM7.46725 13.7944V21H7.91525V13.7944H7.46725ZM7.69125 20.776H2.82188V21.224H7.69125V20.776ZM3.04588 21V2.96625H2.59788V21H3.04588ZM2.82188 3.19025H20.055V2.74225H2.82188V3.19025ZM19.831 2.96625V6.81187H20.279V2.96625H19.831ZM20.055 6.58787H7.69125V7.03587H20.055V6.58787ZM24.2156 21H23.9916V21.224H24.2156V21ZM24.2156 2.96625V2.74225H23.9916V2.96625H24.2156ZM29.085 2.96625H29.309V2.74225H29.085V2.96625ZM29.085 21V21.224H29.309V21H29.085ZM24.4396 21V2.96625H23.9916V21H24.4396ZM24.2156 3.19025H29.085V2.74225H24.2156V3.19025ZM28.861 2.96625V21H29.309V2.96625H28.861ZM29.085 20.776H24.2156V21.224H29.085V20.776ZM33.6919 21H33.4679V21.224H33.6919V21ZM33.6919 17.2331L33.5448 17.0642L33.4679 17.1311V17.2331H33.6919ZM45.5438 6.91687L45.6908 7.08583L46.1423 6.69287H45.5438V6.91687ZM34.0463 6.91687H33.8223V7.14087H34.0463V6.91687ZM34.0463 2.96625V2.74225H33.8223V2.96625H34.0463ZM52.5394 2.96625H52.7634V2.74225H52.5394V2.96625ZM52.5394 6.27375L52.6864 6.44277L52.7634 6.3758V6.27375H52.5394ZM40.1494 17.0494L40.0024 16.8804L39.5505 17.2734H40.1494V17.0494ZM52.8019 17.0494H53.0259V16.8254H52.8019V17.0494ZM52.8019 21V21.224H53.0259V21H52.8019ZM33.9159 21V17.2331H33.4679V21H33.9159ZM33.8389 17.4021L45.6908 7.08583L45.3967 6.74792L33.5448 17.0642L33.8389 17.4021ZM45.5438 6.69287H34.0463V7.14087H45.5438V6.69287ZM34.2703 6.91687V2.96625H33.8223V6.91687H34.2703ZM34.0463 3.19025H52.5394V2.74225H34.0463V3.19025ZM52.3154 2.96625V6.27375H52.7634V2.96625H52.3154ZM52.3924 6.10473L40.0024 16.8804L40.2964 17.2184L52.6864 6.44277L52.3924 6.10473ZM40.1494 17.2734H52.8019V16.8254H40.1494V17.2734ZM52.5779 17.0494V21H53.0259V17.0494H52.5779ZM52.8019 20.776H33.6919V21.224H52.8019V20.776Z" fill="url(#paint1_linear_238_654)"/>
<path d="M62.5713 21H57.7019V2.96625H69.9081C71.2206 2.96625 72.3319 3.10187 73.2419 3.37312C74.1606 3.64437 74.9044 4.02937 75.4731 4.52812C76.0506 5.02687 76.4663 5.63062 76.72 6.33937C76.9825 7.03937 77.1138 7.8225 77.1138 8.68875C77.1138 9.45 77.0044 10.115 76.7856 10.6837C76.5756 11.2525 76.2869 11.7425 75.9194 12.1537C75.5606 12.5562 75.1406 12.8975 74.6594 13.1775C74.1781 13.4575 73.6706 13.6894 73.1369 13.8731L79.0431 21H73.3469L67.8869 14.3587H62.5713V21ZM72.1919 8.6625C72.1919 8.3125 72.1438 8.015 72.0475 7.77C71.96 7.525 71.8025 7.32812 71.575 7.17937C71.3475 7.02187 71.0413 6.90812 70.6563 6.83812C70.28 6.76812 69.8075 6.73312 69.2388 6.73312H62.5713V10.5919H69.2388C69.8075 10.5919 70.28 10.5569 70.6563 10.4869C71.0413 10.4169 71.3475 10.3075 71.575 10.1587C71.8025 10.0012 71.96 9.8 72.0475 9.555C72.1438 9.31 72.1919 9.0125 72.1919 8.6625ZM103.613 14.9231C103.613 15.8244 103.39 16.6731 102.944 17.4694C102.498 18.2656 101.828 18.9612 100.936 19.5562C100.043 20.1512 98.9275 20.6237 97.5888 20.9737C96.2588 21.315 94.7013 21.4856 92.9163 21.4856C91.1313 21.4856 89.565 21.315 88.2175 20.9737C86.8788 20.6237 85.7631 20.1512 84.8706 19.5562C83.9781 18.9612 83.3088 18.2656 82.8625 17.4694C82.4163 16.6731 82.1931 15.8244 82.1931 14.9231V2.96625H87.0494V13.1775C87.0494 13.7812 87.1238 14.3544 87.2725 14.8969C87.43 15.4306 87.7188 15.8987 88.1388 16.3012C88.5675 16.7037 89.1625 17.0231 89.9238 17.2594C90.6938 17.4956 91.6913 17.6137 92.9163 17.6137C94.1325 17.6137 95.1213 17.4956 95.8825 17.2594C96.6438 17.0231 97.2344 16.7037 97.6544 16.3012C98.0831 15.8987 98.3719 15.4306 98.5206 14.8969C98.6694 14.3544 98.7438 13.7812 98.7438 13.1775V2.96625H103.613V14.9231ZM114.021 9.84375L123.996 2.96625H130.519L118.379 11.6156L131.333 21H124.233L114.021 13.5056V21H109.126V2.96625H114.021V9.84375Z" fill="#F5F5F5"/>
<path d="M62.5713 21V21.224H62.7953V21H62.5713ZM57.7019 21H57.4779V21.224H57.7019V21ZM57.7019 2.96625V2.74225H57.4779V2.96625H57.7019ZM73.2419 3.37312L73.1779 3.58779L73.1785 3.58796L73.2419 3.37312ZM75.4731 4.52812L75.3254 4.69655L75.3267 4.69765L75.4731 4.52812ZM76.72 6.33937L76.5091 6.41489L76.5103 6.41803L76.72 6.33937ZM76.7856 10.6837L76.5765 10.6033L76.5755 10.6062L76.7856 10.6837ZM75.9194 12.1537L75.7524 12.0045L75.7522 12.0047L75.9194 12.1537ZM74.6594 13.1775L74.772 13.3711L74.6594 13.1775ZM73.1369 13.8731L73.064 13.6613L72.7578 13.7667L72.9644 14.0161L73.1369 13.8731ZM79.0431 21V21.224H79.5197L79.2156 20.8571L79.0431 21ZM73.3469 21L73.1738 21.1423L73.2411 21.224H73.3469V21ZM67.8869 14.3587L68.0599 14.2165L67.9927 14.1347H67.8869V14.3587ZM62.5713 14.3587V14.1347H62.3473V14.3587H62.5713ZM72.0475 7.77L71.8365 7.84538L71.839 7.85191L72.0475 7.77ZM71.575 7.17937L71.4475 7.36361L71.4524 7.36686L71.575 7.17937ZM70.6563 6.83812L70.6153 7.05835L70.6162 7.05851L70.6563 6.83812ZM62.5713 6.73312V6.50912H62.3473V6.73312H62.5713ZM62.5713 10.5919H62.3473V10.8159H62.5713V10.5919ZM70.6563 10.4869L70.6162 10.2665L70.6153 10.2667L70.6563 10.4869ZM71.575 10.1587L71.6976 10.3463L71.7025 10.3429L71.575 10.1587ZM72.0475 9.555L71.8389 9.47305L71.8366 9.47966L72.0475 9.555ZM62.5713 20.776H57.7019V21.224H62.5713V20.776ZM57.9259 21V2.96625H57.4779V21H57.9259ZM57.7019 3.19025H69.9081V2.74225H57.7019V3.19025ZM69.9081 3.19025C71.2066 3.19025 72.2949 3.32459 73.1779 3.58779L73.3059 3.15846C72.3689 2.87916 71.2347 2.74225 69.9081 2.74225V3.19025ZM73.1785 3.58796C74.0741 3.85239 74.7867 4.22408 75.3254 4.69654L75.6208 4.35971C75.0221 3.83466 74.2472 3.43636 73.3053 3.15829L73.1785 3.58796ZM75.3267 4.69765C75.8754 5.17151 76.2686 5.74302 76.5091 6.41488L76.9309 6.26387C76.6639 5.51823 76.2259 4.88224 75.6195 4.3586L75.3267 4.69765ZM76.5103 6.41803C76.762 7.08923 76.8898 7.84516 76.8898 8.68875H77.3378C77.3378 7.79983 77.203 6.98952 76.9297 6.26072L76.5103 6.41803ZM76.8898 8.68875C76.8898 9.4291 76.7833 10.0658 76.5766 10.6033L76.9947 10.7642C77.2254 10.1642 77.3378 9.4709 77.3378 8.68875H76.8898ZM76.5755 10.6062C76.3743 11.1512 76.0993 11.6162 75.7524 12.0045L76.0864 12.303C76.4744 11.8688 76.777 11.3538 76.9958 10.7613L76.5755 10.6062ZM75.7522 12.0047C75.4096 12.389 75.0082 12.7154 74.5467 12.9839L74.772 13.3711C75.273 13.0796 75.7116 12.7235 76.0866 12.3028L75.7522 12.0047ZM74.5467 12.9839C74.0783 13.2564 73.5841 13.4823 73.064 13.6613L73.2098 14.0849C73.7572 13.8965 74.278 13.6586 74.772 13.3711L74.5467 12.9839ZM72.9644 14.0161L78.8707 21.1429L79.2156 20.8571L73.3094 13.7302L72.9644 14.0161ZM79.0431 20.776H73.3469V21.224H79.0431V20.776ZM73.5199 20.8577L68.0599 14.2165L67.7138 14.501L73.1738 21.1423L73.5199 20.8577ZM67.8869 14.1347H62.5713V14.5827H67.8869V14.1347ZM62.3473 14.3587V21H62.7953V14.3587H62.3473ZM72.4159 8.6625C72.4159 8.29319 72.3653 7.96623 72.256 7.68809L71.839 7.85191C71.9223 8.06377 71.9679 8.33181 71.9679 8.6625H72.4159ZM72.2585 7.69466C72.1537 7.40148 71.964 7.1661 71.6976 6.99189L71.4524 7.36686C71.641 7.49015 71.7663 7.64852 71.8366 7.84534L72.2585 7.69466ZM71.7025 6.9952C71.4403 6.81365 71.1006 6.69125 70.6963 6.61774L70.6162 7.05851C70.9819 7.125 71.2547 7.2301 71.4475 7.36355L71.7025 6.9952ZM70.6972 6.6179C70.3027 6.5445 69.8153 6.50912 69.2388 6.50912V6.95712C69.7997 6.95712 70.2573 6.99175 70.6153 7.05835L70.6972 6.6179ZM69.2388 6.50912H62.5713V6.95712H69.2388V6.50912ZM62.3473 6.73312V10.5919H62.7953V6.73312H62.3473ZM62.5713 10.8159H69.2388V10.3679H62.5713V10.8159ZM69.2388 10.8159C69.8153 10.8159 70.3027 10.7805 70.6972 10.7071L70.6153 10.2667C70.2573 10.3332 69.7997 10.3679 69.2388 10.3679V10.8159ZM70.6963 10.7073C71.0988 10.6341 71.4366 10.5169 71.6976 10.3462L71.4524 9.97127C71.2584 10.0981 70.9837 10.1997 70.6162 10.2665L70.6963 10.7073ZM71.7025 10.3429C71.9659 10.1606 72.1542 9.92233 72.2585 9.63034L71.8366 9.47966C71.7658 9.67767 71.6391 9.84194 71.4475 9.97458L71.7025 10.3429ZM72.256 9.63691C72.3653 9.35877 72.4159 9.03181 72.4159 8.6625H71.9679C71.9679 8.99319 71.9223 9.26123 71.839 9.47309L72.256 9.63691ZM102.944 17.4694L103.139 17.5789L102.944 17.4694ZM97.5888 20.9737L97.6444 21.1907L97.6454 21.1905L97.5888 20.9737ZM88.2175 20.9737L88.1608 21.1905L88.1625 21.1909L88.2175 20.9737ZM84.8706 19.5562L84.7464 19.7426L84.8706 19.5562ZM82.8625 17.4694L82.6671 17.5789L82.8625 17.4694ZM82.1931 2.96625V2.74225H81.9691V2.96625H82.1931ZM87.0494 2.96625H87.2734V2.74225H87.0494V2.96625ZM87.2725 14.8969L87.0564 14.9561L87.0577 14.9603L87.2725 14.8969ZM88.1388 16.3012L87.9838 16.463L87.9854 16.4646L88.1388 16.3012ZM89.9238 17.2594L89.8574 17.4733L89.8581 17.4735L89.9238 17.2594ZM97.6544 16.3012L97.5011 16.1379L97.4994 16.1395L97.6544 16.3012ZM98.5206 14.8969L98.7364 14.957L98.7367 14.9561L98.5206 14.8969ZM98.7438 2.96625V2.74225H98.5198V2.96625H98.7438ZM103.613 2.96625H103.837V2.74225H103.613V2.96625ZM103.389 14.9231C103.389 15.7855 103.176 16.5966 102.748 17.3599L103.139 17.5789C103.604 16.7496 103.837 15.8632 103.837 14.9231H103.389ZM102.748 17.3599C102.322 18.1202 101.68 18.7911 100.811 19.3699L101.06 19.7426C101.977 19.1314 102.673 18.411 103.139 17.5789L102.748 17.3599ZM100.811 19.3699C99.9446 19.9477 98.8534 20.4116 97.5321 20.757L97.6454 21.1905C99.0016 20.8359 100.142 20.3548 101.06 19.7426L100.811 19.3699ZM97.5331 20.7568C96.2258 21.0922 94.6878 21.2616 92.9163 21.2616V21.7096C94.7148 21.7096 96.2918 21.5378 97.6444 21.1907L97.5331 20.7568ZM92.9163 21.2616C91.1448 21.2616 89.5978 21.0922 88.2725 20.7566L88.1625 21.1909C89.5322 21.5378 91.1177 21.7096 92.9163 21.7096V21.2616ZM88.2742 20.757C86.9529 20.4116 85.8617 19.9477 84.9949 19.3699L84.7464 19.7426C85.6646 20.3548 86.8047 20.8359 88.1608 21.1905L88.2742 20.757ZM84.9949 19.3699C84.1267 18.7911 83.4841 18.1202 83.0579 17.3599L82.6671 17.5789C83.1335 18.411 83.8296 19.1314 84.7464 19.7426L84.9949 19.3699ZM83.0579 17.3599C82.6302 16.5966 82.4171 15.7855 82.4171 14.9231H81.9691C81.9691 15.8632 82.2024 16.7496 82.6671 17.5789L83.0579 17.3599ZM82.4171 14.9231V2.96625H81.9691V14.9231H82.4171ZM82.1931 3.19025H87.0494V2.74225H82.1931V3.19025ZM86.8254 2.96625V13.1775H87.2734V2.96625H86.8254ZM86.8254 13.1775C86.8254 13.7998 86.9021 14.3929 87.0565 14.9561L87.4885 14.8376C87.3454 14.3158 87.2734 13.7627 87.2734 13.1775H86.8254ZM87.0577 14.9603C87.2267 15.5332 87.5369 16.0347 87.9838 16.463L88.2937 16.1395C87.9006 15.7628 87.6333 15.3281 87.4873 14.8335L87.0577 14.9603ZM87.9854 16.4646C88.4461 16.897 89.0746 17.2304 89.8574 17.4733L89.9902 17.0454C89.2504 16.8159 88.6889 16.5105 88.2921 16.1379L87.9854 16.4646ZM89.8581 17.4735C90.6574 17.7188 91.6793 17.8377 92.9163 17.8377V17.3897C91.7032 17.3897 90.7302 17.2725 89.9895 17.0452L89.8581 17.4735ZM92.9163 17.8377C94.1445 17.8377 95.158 17.7188 95.9489 17.4733L95.8161 17.0454C95.0845 17.2725 94.1205 17.3897 92.9163 17.3897V17.8377ZM95.9489 17.4733C96.7317 17.2304 97.3568 16.8967 97.8094 16.463L97.4994 16.1395C97.112 16.5108 96.5558 16.8159 95.8161 17.0454L95.9489 17.4733ZM97.8077 16.4646C98.2644 16.0358 98.576 15.5327 98.7364 14.957L98.3049 14.8367C98.1678 15.3286 97.9019 15.7617 97.5011 16.1379L97.8077 16.4646ZM98.7367 14.9561C98.8911 14.3929 98.9678 13.7998 98.9678 13.1775H98.5198C98.5198 13.7627 98.4477 14.3158 98.3046 14.8376L98.7367 14.9561ZM98.9678 13.1775V2.96625H98.5198V13.1775H98.9678ZM98.7438 3.19025H103.613V2.74225H98.7438V3.19025ZM103.389 2.96625V14.9231H103.837V2.96625H103.389ZM114.021 9.84375H113.797V10.2703L114.148 10.0282L114.021 9.84375ZM123.996 2.96625V2.74225H123.927L123.869 2.78183L123.996 2.96625ZM130.519 2.96625L130.649 3.14869L131.22 2.74225H130.519V2.96625ZM118.379 11.6156L118.249 11.4332L117.995 11.6141L118.247 11.797L118.379 11.6156ZM131.333 21V21.224H132.024L131.465 20.8186L131.333 21ZM124.233 21L124.1 21.1806L124.159 21.224H124.233V21ZM114.021 13.5056L114.154 13.325L113.797 13.0634V13.5056H114.021ZM114.021 21V21.224H114.245V21H114.021ZM109.126 21H108.902V21.224H109.126V21ZM109.126 2.96625V2.74225H108.902V2.96625H109.126ZM114.021 2.96625H114.245V2.74225H114.021V2.96625ZM114.148 10.0282L124.123 3.15066L123.869 2.78183L113.894 9.65933L114.148 10.0282ZM123.996 3.19025H130.519V2.74225H123.996V3.19025ZM130.389 2.78381L118.249 11.4332L118.509 11.7981L130.649 3.14869L130.389 2.78381ZM118.247 11.797L131.202 21.1814L131.465 20.8186L118.51 11.4342L118.247 11.797ZM131.333 20.776H124.233V21.224H131.333V20.776ZM124.365 20.8194L114.154 13.325L113.889 13.6862L124.1 21.1806L124.365 20.8194ZM113.797 13.5056V21H114.245V13.5056H113.797ZM114.021 20.776H109.126V21.224H114.021V20.776ZM109.35 21V2.96625H108.902V21H109.35ZM109.126 3.19025H114.021V2.74225H109.126V3.19025ZM113.797 2.96625V9.84375H114.245V2.96625H113.797Z" fill="#F5F5F5"/>
<defs>
<linearGradient id="paint0_linear_238_654" x1="27.5" y1="0" x2="27.5" y2="24" gradientUnits="userSpaceOnUse">
<stop stop-color="#40F214"/>
<stop offset="1" stop-color="#15D028"/>
</linearGradient>
<linearGradient id="paint1_linear_238_654" x1="27.5" y1="0" x2="27.5" y2="24" gradientUnits="userSpaceOnUse">
<stop stop-color="#40F214"/>
<stop offset="1" stop-color="#15D028"/>
</linearGradient>
</defs>
</svg>
