<svg xmlns="http://www.w3.org/2000/svg" xmlns:xlink="http://www.w3.org/1999/xlink" viewBox="0 0 200 200"><defs><style>.cls-1{mask:url(#mask);}.cls-11,.cls-13,.cls-2,.cls-22,.cls-24,.cls-29,.cls-33,.cls-37,.cls-9{mix-blend-mode:multiply;}.cls-2{fill:url(#linear-gradient);}.cls-3{isolation:isolate;}.cls-4{fill:#161816;}.cls-5{fill:#364c51;}.cls-6{fill:#858c8e;}.cls-7{fill:#50676d;}.cls-8{fill:#a0b2b5;}.cls-9{fill:#49433e;}.cls-11,.cls-24,.cls-9{opacity:0.2;}.cls-10{fill:url(#linear-gradient-2);}.cls-11{fill:url(#linear-gradient-3);}.cls-12{fill:url(#radial-gradient);}.cls-13,.cls-24{fill:#e89478;}.cls-13,.cls-22,.cls-37{opacity:0.3;}.cls-14{fill:url(#linear-gradient-4);}.cls-15{fill:url(#linear-gradient-5);}.cls-16{fill:url(#linear-gradient-6);}.cls-17,.cls-22{fill:#e2521a;}.cls-18,.cls-33{opacity:0.7;}.cls-19{fill:#ff8e31;}.cls-20{fill:#f68e75;}.cls-20,.cls-29,.cls-30{opacity:0.5;}.cls-21,.cls-38{fill:#fff;}.cls-23{fill:url(#linear-gradient-7);}.cls-25{fill:#ce8567;}.cls-26{fill:url(#linear-gradient-8);}.cls-27{fill:#193d4c;}.cls-28{fill:#484848;}.cls-29{fill:#bab6b6;}.cls-30{mix-blend-mode:screen;fill:url(#linear-gradient-9);}.cls-31{opacity:0.6;}.cls-32,.cls-38{opacity:0.4;}.cls-33{fill:#a36f48;}.cls-34{fill:url(#linear-gradient-10);}.cls-35{mask:url(#mask-2);}.cls-36{fill:url(#linear-gradient-11);}.cls-37{fill:#e88a6b;}.cls-39{filter:url(#luminosity-noclip-2);}.cls-40{filter:url(#luminosity-noclip);}</style><filter id="luminosity-noclip" x="203.93" y="-8417" width="5.73" height="32766" filterUnits="userSpaceOnUse" color-interpolation-filters="sRGB"><feFlood flood-color="#fff" result="bg"/><feBlend in="SourceGraphic" in2="bg"/></filter><mask id="mask" x="203.93" y="-8417" width="5.73" height="32766" maskUnits="userSpaceOnUse"><g class="cls-40"/></mask><linearGradient id="linear-gradient" x1="-2832.5" y1="255.77" x2="-2833.09" y2="267.9" gradientTransform="matrix(-1, 0.04, 0.04, 1, -2635.23, 60.62)" gradientUnits="userSpaceOnUse"><stop offset="0" stop-color="#ccc"/><stop offset="0.15" stop-color="#dadada"/><stop offset="0.44" stop-color="#eee"/><stop offset="0.72" stop-color="#fbfbfb"/><stop offset="0.99" stop-color="#fff"/></linearGradient><linearGradient id="linear-gradient-2" x1="199.48" y1="334.77" x2="224.58" y2="202.54" gradientUnits="userSpaceOnUse"><stop offset="0.01" stop-color="#0d2830"/><stop offset="1" stop-color="#1a313b"/></linearGradient><linearGradient id="linear-gradient-3" x1="200.32" y1="326.92" x2="219.3" y2="226.93" xlink:href="#linear-gradient-2"/><radialGradient id="radial-gradient" cx="206.71" cy="234.6" r="101.39" gradientUnits="userSpaceOnUse"><stop offset="0" stop-color="#f7ceaa"/><stop offset="1" stop-color="#f7b091"/></radialGradient><linearGradient id="linear-gradient-4" x1="192.29" y1="186.38" x2="185.08" y2="205.05" xlink:href="#radial-gradient"/><linearGradient id="linear-gradient-5" x1="207.14" y1="192.11" x2="199.93" y2="210.79" xlink:href="#radial-gradient"/><linearGradient id="linear-gradient-6" x1="223.35" y1="174.03" x2="193.18" y2="217.42" gradientUnits="userSpaceOnUse"><stop offset="0" stop-color="#fa7319"/><stop offset="1" stop-color="#e25319"/></linearGradient><linearGradient id="linear-gradient-7" x1="205.26" y1="211.54" x2="206.54" y2="204.43" xlink:href="#linear-gradient-6"/><linearGradient id="linear-gradient-8" x1="203.97" y1="225.14" x2="208.13" y2="202.11" xlink:href="#linear-gradient-6"/><linearGradient id="linear-gradient-9" x1="193.87" y1="209.23" x2="205.39" y2="209.23" xlink:href="#linear-gradient-6"/><linearGradient id="linear-gradient-10" x1="220.21" y1="296.93" x2="227.18" y2="308.47" xlink:href="#radial-gradient"/><filter id="luminosity-noclip-2" x="203.93" y="193.7" width="5.73" height="13.03" filterUnits="userSpaceOnUse" color-interpolation-filters="sRGB"><feFlood flood-color="#fff" result="bg"/><feBlend in="SourceGraphic" in2="bg"/></filter><mask id="mask-2" x="97.93" y="55.7" width="5.73" height="13.03" maskUnits="userSpaceOnUse"><g class="cls-39"><g transform="translate(-106 -138)"><g class="cls-1"><path class="cls-2" d="M206.76,206.71c2.57-.23,3.26-1.4,2.73-3.35a9.93,9.93,0,0,0-.43-1.21c-1.16-2.68-3.58-8.45-3.58-8.45.53,1.9-.75,5-1.29,7.94a15.81,15.81,0,0,0-.26,2.22C203.89,205.69,204.51,206.91,206.76,206.71Z"/></g></g></g></mask><linearGradient id="linear-gradient-11" x1="-2832.5" y1="255.77" x2="-2833.09" y2="267.9" gradientTransform="matrix(-1, 0.04, 0.04, 1, -2635.23, 60.62)" gradientUnits="userSpaceOnUse"><stop offset="0" stop-color="#f7bba1"/><stop offset="0.02" stop-color="#f7b89f"/><stop offset="0.27" stop-color="#f79b87"/><stop offset="0.52" stop-color="#f78777"/><stop offset="0.76" stop-color="#f77a6c"/><stop offset="0.99" stop-color="#f77669"/></linearGradient></defs><title>user</title><g class="cls-3"><g id="Layer_1" data-name="Layer 1"><rect class="cls-4" width="200" height="200"/><path class="cls-5" d="M120.78,212.73a1.56,1.56,0,0,1-.1-3.11l10.76-.73a1.56,1.56,0,1,1,.21,3.11l-10.76.73Z" transform="translate(-106 -138)"/><path class="cls-5" d="M288.51,214.61a1.7,1.7,0,0,1-.54-.09c-2.64-1-10.27-3.26-10.35-3.29a1.56,1.56,0,1,1,.9-3c.32.09,7.79,2.34,10.52,3.34a1.56,1.56,0,0,1-.53,3Z" transform="translate(-106 -138)"/><path class="cls-6" d="M139.74,226.11a3.8,3.8,0,0,1-1.6.85c-2.51.69-5.94-.4-5.94-.4a29.91,29.91,0,0,1-2.63-11.2,75.62,75.62,0,0,1,1-16.7c1.35-1.77,4.91-1.46,6.89-1.13.84.14,1.39.29,1.39.29a61.66,61.66,0,0,0-.45,22.16A43.4,43.4,0,0,0,139.74,226.11Z" transform="translate(-106 -138)"/><path class="cls-7" d="M139.74,226.11a3.8,3.8,0,0,1-1.6.85c-.78-3.13-2.43-10.26-2.6-15.76a42,42,0,0,1,1.88-13.67c.84.14,1.39.29,1.39.29A59.88,59.88,0,0,0,139.74,226.11Z" transform="translate(-106 -138)"/><path class="cls-8" d="M131.23,198.86a24.14,24.14,0,0,0-.89,5.48l4.17.13s.88-4.8,1.3-6.13C135.81,198.34,132.45,198.11,131.23,198.86Z" transform="translate(-106 -138)"/><path class="cls-9" d="M139.74,226.11a3.8,3.8,0,0,1-1.6.85c-2.51.69-5.94-.4-5.94-.4a29.91,29.91,0,0,1-2.63-11.2,39.74,39.74,0,0,0,8.79,4.62A43.4,43.4,0,0,0,139.74,226.11Z" transform="translate(-106 -138)"/><path class="cls-6" d="M147.63,225.61a3,3,0,0,1-1,.83c-2.54,1.29-6.86-.33-6.86-.33a37.84,37.84,0,0,1-2.13-9.11,58.75,58.75,0,0,1,1.2-19.18c2-1.28,5.32-1.06,7.31-.54,1,.25,1.67.58,1.67.83,0,1.71-.08,15-.13,22.44C147.64,223.55,147.63,225.61,147.63,225.61Z" transform="translate(-106 -138)"/><path class="cls-7" d="M147.63,225.61a3,3,0,0,1-1,.83A96,96,0,0,1,144.87,212c-.44-8.72.56-11.93,1.25-14.67,1,.25,1.67.58,1.67.83C147.8,200.5,147.63,225.61,147.63,225.61Z" transform="translate(-106 -138)"/><path class="cls-8" d="M139.79,198.28a18.11,18.11,0,0,0-1,6.33l5.41-.26s.48-4.45.92-6.27C145.09,198.08,141.19,197.71,139.79,198.28Z" transform="translate(-106 -138)"/><path class="cls-9" d="M147.63,225.61a3,3,0,0,1-1,.83c-2.54,1.29-6.86-.33-6.86-.33a37.84,37.84,0,0,1-2.13-9.11,28.15,28.15,0,0,0,10,3.55C147.64,223.55,147.63,225.61,147.63,225.61Z" transform="translate(-106 -138)"/><path class="cls-7" d="M165.88,209.24c-.2-10.92-1.32-16.46-3-20.25-.7-1.59-2.11-2.88-3-1.54-.24.63-2,5.83-2.64,24C156.65,231,160.44,233,160.44,233,162.75,232.54,166.08,220.16,165.88,209.24Z" transform="translate(-106 -138)"/><path class="cls-6" d="M160.44,233c-3,.64-12-2.59-12-2.59-1.21-3.7-1.7-8.88-1.81-14.19a184.81,184.81,0,0,1,1.18-22.77c1.4-4.24,10-6,12.62-6.48,0,0-.47.42-.49.47-.24.63-2,5.83-2.64,24a78.89,78.89,0,0,0,.65,14.93C158.87,232.17,160.44,233,160.44,233Z" transform="translate(-106 -138)"/><path class="cls-8" d="M148.75,193.67a38.67,38.67,0,0,0-.48,7.57s7.38-.56,8.85-.57c0,0,.28-7.85,1.46-10.72C158.58,190,149,192.76,148.75,193.67Z" transform="translate(-106 -138)"/><path class="cls-9" d="M160.44,233c-3,.64-12-2.59-12-2.59-1.21-3.7-1.7-8.88-1.81-14.19a28.54,28.54,0,0,0,11.32,10.14C158.87,232.17,160.44,233,160.44,233Z" transform="translate(-106 -138)"/><path class="cls-6" d="M270.12,225.26a3.67,3.67,0,0,0,1.53,1c2.47.86,6,0,6,0a30.05,30.05,0,0,0,3.34-11,75.77,75.77,0,0,0,.12-16.72c-1.24-1.85-4.81-1.77-6.81-1.56-.84.08-1.41.19-1.41.19a61.67,61.67,0,0,1-1,22.15A43.3,43.3,0,0,1,270.12,225.26Z" transform="translate(-106 -138)"/><path class="cls-7" d="M270.12,225.26a3.67,3.67,0,0,0,1.53,1,84.16,84.16,0,0,0,3.61-15.55,41.82,41.82,0,0,0-1-13.76c-.84.08-1.41.19-1.41.19A59.77,59.77,0,0,1,270.12,225.26Z" transform="translate(-106 -138)"/><path class="cls-8" d="M280.36,198.62a24.49,24.49,0,0,1,.53,5.52l-4.17-.13s-.57-4.85-.9-6.21C275.82,197.8,279.19,197.79,280.36,198.62Z" transform="translate(-106 -138)"/><path class="cls-9" d="M270.12,225.26a3.67,3.67,0,0,0,1.53,1c2.47.86,6,0,6,0a30.05,30.05,0,0,0,3.34-11,39.45,39.45,0,0,1-9.07,4.06A43.3,43.3,0,0,1,270.12,225.26Z" transform="translate(-106 -138)"/><path class="cls-6" d="M262.27,224.26a3,3,0,0,0,1,.89c2.45,1.45,6.87.11,6.87.11a37.84,37.84,0,0,0,2.7-8.95,58.58,58.58,0,0,0,0-19.22c-1.9-1.4-5.23-1.39-7.26-1-1,.19-1.7.48-1.72.72-.11,1.71-.88,15-1.31,22.41C262.39,222.2,262.27,224.26,262.27,224.26Z" transform="translate(-106 -138)"/><path class="cls-7" d="M262.27,224.26a3,3,0,0,0,1,.89,95.89,95.89,0,0,0,2.65-14.35c1-8.67.21-11.93-.31-14.72-1,.19-1.7.48-1.72.72C263.72,199.2,262.27,224.26,262.27,224.26Z" transform="translate(-106 -138)"/><path class="cls-8" d="M271.85,197.49a17.9,17.9,0,0,1,.62,6.38l-5.39-.6s-.18-4.47-.51-6.32C266.57,197,270.49,196.83,271.85,197.49Z" transform="translate(-106 -138)"/><path class="cls-9" d="M262.27,224.26a3,3,0,0,0,1,.89c2.45,1.45,6.87.11,6.87.11a37.84,37.84,0,0,0,2.7-8.95,28,28,0,0,1-10.26,2.9C262.39,222.2,262.27,224.26,262.27,224.26Z" transform="translate(-106 -138)"/><path class="cls-7" d="M245.11,206.75c.9-10.88,2.38-16.33,4.28-20,.8-1.55,2.29-2.74,3.07-1.35.21.65,1.68,6,1.1,24.11C252.93,229,249,230.83,249,230.83,246.74,230.2,244.21,217.64,245.11,206.75Z" transform="translate(-106 -138)"/><path class="cls-6" d="M249,230.83c2.91.82,12.17-1.82,12.17-1.82,1.44-3.61,2.26-8.75,2.71-14a184.7,184.7,0,0,0,.28-22.79c-1.12-4.32-9.61-6.66-12.17-7.28,0,0,.43.45.45.5.21.65,1.68,6,1.1,24.11a79.68,79.68,0,0,1-1.6,14.86C250.64,230.08,249,230.83,249,230.83Z" transform="translate(-106 -138)"/><path class="cls-8" d="M263.2,192.32a37.56,37.56,0,0,1,0,7.58s-7.32-1-8.79-1.14c0,0,.23-7.85-.77-10.79C253.63,188,263.06,191.39,263.2,192.32Z" transform="translate(-106 -138)"/><path class="cls-9" d="M249,230.83c2.91.82,12.17-1.82,12.17-1.82,1.44-3.61,2.26-8.75,2.71-14a28.42,28.42,0,0,1-11.94,9.4C250.64,230.08,249,230.83,249,230.83Z" transform="translate(-106 -138)"/><path class="cls-5" d="M249.24,209.88l-.18,0c-18.49-3.46-41.33-2.83-57.23-1.69-17.25,1.23-30.27,3.3-30.4,3.32-.62.1-1.18-.51-1.27-1.37a1.5,1.5,0,0,1,1-1.72c.13,0,13.23-2.11,30.54-3.35,16-1.14,39-1.77,57.65,1.72a1.58,1.58,0,0,1,1,1.76C250.24,209.3,249.78,209.86,249.24,209.88Z" transform="translate(-106 -138)"/><path class="cls-10" d="M228.62,312.75a80.88,80.88,0,0,1-49.74-1c.38-1.12.74-2.07,1.05-2.85.53-1.34.9-2.17,1-2.39l24.86,1.52,20.18-1.12c.43.74.92,1.72,1.44,2.87C227.78,310.69,228.19,311.68,228.62,312.75Z" transform="translate(-106 -138)"/><path class="cls-11" d="M227.38,309.82c-5.52,1.39-14.07,3.14-21.62,2.93a111.68,111.68,0,0,1-25.83-3.82c.53-1.35.91-2.17,1-2.39l24.86,1.52,20.18-1.12A31.92,31.92,0,0,1,227.38,309.82Z" transform="translate(-106 -138)"/><path class="cls-12" d="M291.49,267.07s-.42-1-1.16-2.54A141.12,141.12,0,0,0,281.24,248c-5.27-8-15.92-14.24-19.07-15.71l-.41-.18a57.39,57.39,0,0,0-11.62-13.21,12.66,12.66,0,0,0-2.59-1.58h0c-4.74-2.2-10.4-1.51-14.36-.52-1.07.27-2,.56-2.77.82-1.36.46-2.18.82-2.18.82s-.47-.43-1.22-1.08c-2.09-1.81-6.33-5.3-8.45-5.64-1.26-.2-3.8,2-13.31.61a134.24,134.24,0,0,1-15.14-3.51s-2.22,6.51-2.87,8.66c-.09.29-1.05.18-2.08.29h0a3.1,3.1,0,0,0-2.13.91s-1.68-6.81-10-6.35c-.57,0-1.12.1-1.67.19h0c-7.33,1.28-12,7.92-13.23,10.61a7.9,7.9,0,0,0-1.74-2.59,4.14,4.14,0,0,0-3.19-1.26c-3.36.24-8.17,5.41-8.17,5.41s.05-.4.09-1.08h0c.13-2.45.1-8.53-3.1-12.85-4.08-5.53-7-12.15-7.81-17.61s.36-12.08,1-12.8c.14-.17.42-.09.81.11.23.12.5.28.8.47,1.39.83,3.42,2,5.31,1l.14,0,.31,0h0a1.52,1.52,0,0,0,1.2-.36,1.12,1.12,0,0,0,.24-.38l0-.11s1.84,1,2.16.16a1.66,1.66,0,0,0,.15-.65h0a.6.6,0,0,0-.15-.43l.1,0c.29-.1,1.11-.53.3-1.94a.11.11,0,0,0,.06,0,.82.82,0,0,0,.52-.24c.3-.32.48-1.05-.18-2.72-1.1-2.8-2.68-4.31-4.11-4.48h-.37a4.92,4.92,0,0,0-.26-.48c-.44-.76-1.43-2.12-2.71-2-1.76.16-7.21,3.36-13.06,11.62-5.47,7.72-8.91,18.6-10,28.1-.07.66-.14,1.31-.19,1.95-.8,9.94,1.2,24.12,5.69,29.41,0,0-2.16,1.6-.56,2.89s3-.89,3-.89A56.57,56.57,0,0,0,139.07,249c7.69,2.4,21.72,3.92,24,5.21l.08,0,.07.05.07,0a.18.18,0,0,0,.07,0l.05,0c.14.1.29.23.45.37l.14.12.07.06.07.07.22.21.07.08c.05,0,.1.1.15.15l.15.15a3.32,3.32,0,0,1,.25.27l.16.17.1.11.15.16a1.54,1.54,0,0,0,.17.19l.16.2.09.1.22.26.3.36.15.19c.43.52.86,1.07,1.28,1.64.21.27.42.56.63.84.63.87,1.24,1.75,1.8,2.6l.09.14a27.6,27.6,0,0,1,2.13,3.75l0,.09a31.3,31.3,0,0,1,1.24,4.76c1.07,5.14,2.24,12.65,3.09,16.95,1.2,6.1,1.36,16.19,4.16,18.12.61.41.33.09.26,0h0l.11,0,.41.08c2.84.57,16.71,3.25,24.81,3.1a83.25,83.25,0,0,0,9.87-.83c1.72-.21,3.59-.29,5.29-.43a18.27,18.27,0,0,0,3.87-.59,4.63,4.63,0,0,0,.92-.39,7.46,7.46,0,0,1,2.1-.23c1.74-.06,3.91,0,3.91,0a57.13,57.13,0,0,0,16.83-3.05c8.1-3,23.08-11.62,28.45-17.23s14-16.35,14-16.35,2.73-.16,2.65-2.16S293.1,266,291.49,267.07Zm-62.91,30.05c.8-3.33,1.7-7,2.57-10.3a162.47,162.47,0,0,1,6.57-19.31c1-2.29,4.43-6.45,6.33-9.49h0a9.29,9.29,0,0,0,1.22-2.54s.31.6.9,1.5l.39.59.16.23.54.75.29.38c.25.32.51.65.79,1l.12.13c.27.33.57.65.88,1l.29.3.18.18.15.15.18.17c2.61,2.47,8.75,6.23,10.45,7.26l.45.27s-3.2,1.36-8.57,6.81-8.9,11.62-10.66,14.19-9.7,8.89-10.74,8.89c0,0-.33-.36-.84-.84A11.68,11.68,0,0,0,228.58,297.12Z" transform="translate(-106 -138)"/><path class="cls-13" d="M206.91,236.5a50.55,50.55,0,0,1-2.13,28c1.47-7.69.22-20.68-1.47-25.55-1.4-4-12.07-13.55-18.14-21.26,1-.11,2,0,2.08-.29.65-2.15,2.87-8.66,2.87-8.66a134.24,134.24,0,0,0,15.14,3.51c9.51,1.43,12.05-.81,13.31-.61,2.12.34,6.36,3.83,8.45,5.64C221.27,231.15,206.91,236.5,206.91,236.5Z" transform="translate(-106 -138)"/><path class="cls-14" d="M188.36,208.78a5.46,5.46,0,0,1-1.87-.6c-2.79-1.48-4.73-5.24-4.3-7.59.32-1.81,1.33-2.85,2.35-3.08a1.84,1.84,0,0,1,1.53.35,26.43,26.43,0,0,1,1.64,4A37.84,37.84,0,0,1,188.36,208.78Z" transform="translate(-106 -138)"/><path class="cls-15" d="M218.79,203.43h0s0,.29-.1.74a10.84,10.84,0,0,1-1.38,4.2c-1.5,1.9-2.13,2.48-7.5,2.24s-14.42-1.7-16.58-3.63-3.59-6-3.59-6c4.25-3.85,2.8-11.3,2.64-12.26s-.48-2,3.85-3.61,10.18-1.6,14.1-1a11.47,11.47,0,0,0,3.86.06,7.78,7.78,0,0,1,1,.81,6.12,6.12,0,0,1,1.59,2.13C218.09,190.17,218.24,197.61,218.79,203.43Z" transform="translate(-106 -138)"/><path class="cls-16" d="M220.24,223.07c0,.1-.07.21-.11.31h0a11,11,0,0,1-4.29,5.78l-.16.1-.15.1a23.45,23.45,0,0,1-2.71,1.41l-.16.06a14.78,14.78,0,0,1-9.22.92l-.14,0a17.22,17.22,0,0,1-5.1-2.19.57.57,0,0,0-.13-.08,22.59,22.59,0,0,1-1.86-1.32,15.74,15.74,0,0,1-2.28-2.17l-.11-.12a20.56,20.56,0,0,1-4.06-8.37,1.6,1.6,0,0,1,0-.21c-.3-1.19-.51-2.32-.69-3.35a1.87,1.87,0,0,0,0-.25c-.08-.46-.15-.91-.22-1.32a30.77,30.77,0,0,1-.4-3.56,37.84,37.84,0,0,0-.65-6.94,26.43,26.43,0,0,0-1.64-4,19.91,19.91,0,0,1-2-5.87c-.4-3.61,1-7.38,3.6-6.66l-.08-.33c-.24-1-.83-4.2.57-6,0,0,.16,3.69,1.12,4.09a28.56,28.56,0,0,1,6.81-9.78,19.09,19.09,0,0,1,6.72-3.75h0l.26-.08h0a18.37,18.37,0,0,1,2.12-.55l.16,0a18,18,0,0,1,2.76-.32h.16c.4,0,.79,0,1.17,0h.18a10.1,10.1,0,0,1,2.2.4l.23.07a7.27,7.27,0,0,1,.95.39,11.77,11.77,0,0,1,1.72,1.05h0a6.26,6.26,0,0,1,.57.45c3,2.5,4.3,6.19,3.44,8.83h0a4.67,4.67,0,0,1-.58,1.16c-1.3,1.88-2.5,2.82-4.1,3.15a11.47,11.47,0,0,1-3.86-.06l-1.1-.13-.78-.08h0c-1-.08-2-.13-3-.13h-.57a30.11,30.11,0,0,0-5.92.61h0l-.28.06a19.67,19.67,0,0,0-2.4.7,8.87,8.87,0,0,0-3.51,1.93,1.46,1.46,0,0,0-.16.21,1.44,1.44,0,0,0-.21.46,1.65,1.65,0,0,0,0,.49h0c0,.13,0,.27,0,.4a.5.5,0,0,1,0,.12c0,.11.06.31.1.58l0,.18c.33,2.22.88,8.19-2.77,11.5,0,0,1.42,4.09,3.59,6s11.21,3.39,16.58,3.63,6-.34,7.5-2.24c1.1-1.39,1.48-4.94,1.48-4.94h0s.17.25.37.6h0a16,16,0,0,1,1.65,4.14C221.26,210.07,222.17,217.31,220.24,223.07Z" transform="translate(-106 -138)"/><path class="cls-17" d="M193.93,192.79c-.27-1,.43-3,1.44-4.28s2.19-1.92,3.42-1.17,1.87,2.08,1.6,2.24-1.87-.37-3.57.59A10.14,10.14,0,0,0,193.93,192.79Z" transform="translate(-106 -138)"/><g class="cls-18"><path class="cls-19" d="M220.24,223.07c0,.1-.07.21-.11.31a53.85,53.85,0,0,0-2.46-10.75c0-.09.11-.17.14-.07A52.73,52.73,0,0,1,220.24,223.07Z" transform="translate(-106 -138)"/><path class="cls-19" d="M212.82,230.78l-.16.06a34.61,34.61,0,0,0-.15-3.53,51.65,51.65,0,0,0-2.3-10.85c0-.1.13-.13.16,0a50.89,50.89,0,0,1,2.33,11.26C212.78,228.71,212.83,229.74,212.82,230.78Z" transform="translate(-106 -138)"/><path class="cls-19" d="M215.68,229.27l-.15.1a44.54,44.54,0,0,0-1-7.38.08.08,0,0,1,.16,0A44.91,44.91,0,0,1,215.68,229.27Z" transform="translate(-106 -138)"/><path class="cls-19" d="M201,216.45a59.2,59.2,0,0,1-1.38,8.88,25.6,25.6,0,0,1-1.41,4.2.57.57,0,0,0-.13-.08,25.42,25.42,0,0,0,1.44-4.4,59.7,59.7,0,0,0,1.32-8.61C200.84,216.34,201,216.34,201,216.45Z" transform="translate(-106 -138)"/><path class="cls-19" d="M196.9,220.31a21.8,21.8,0,0,1-3,5.65l-.11-.12a21.72,21.72,0,0,0,2.93-5.58C196.78,220.17,196.94,220.22,196.9,220.31Z" transform="translate(-106 -138)"/><path class="cls-19" d="M192.32,213.84c-.81,1.22-1.75,2.39-2.56,3.63a1.6,1.6,0,0,1,0-.21c.79-1.19,1.69-2.33,2.48-3.51C192.25,213.67,192.38,213.76,192.32,213.84Z" transform="translate(-106 -138)"/><path class="cls-19" d="M190.64,211.2c-.52.91-1.09,1.8-1.62,2.71a1.87,1.87,0,0,0,0-.25c.5-.85,1-1.69,1.53-2.55C190.56,211,190.69,211.11,190.64,211.2Z" transform="translate(-106 -138)"/><path class="cls-19" d="M204.36,221.5c-.32,2.7-.27,5.44-.6,8.15-.08.68-.18,1.39-.32,2.11l-.14,0c.16-.85.26-1.71.35-2.51.28-2.57.25-5.16.55-7.72A.08.08,0,1,1,204.36,221.5Z" transform="translate(-106 -138)"/></g><path class="cls-17" d="M208.47,190c-.48-.59,1.62-3.22,3.69-2.94s3.52,2.62,3.31,3.53a5.06,5.06,0,0,0-3.34-1.31A14.62,14.62,0,0,0,208.47,190Z" transform="translate(-106 -138)"/><path class="cls-20" d="M183.73,199.82c1.71.36,3.85,2.78,4.39,4.43s.21,2.62-.43,2.67-3.37-2.93-1.34-3.95a7.66,7.66,0,0,0-1.87-2.14C183.57,200.3,183.73,199.82,183.73,199.82Z" transform="translate(-106 -138)"/><path class="cls-20" d="M192.48,200.31c-.61,1,1.68,3.4,2.62,2.35C196.23,201.41,193.44,198.71,192.48,200.31Z" transform="translate(-106 -138)"/><path class="cls-20" d="M214.51,201.53c.74.74,3.74-1.55,2.51-2.51S213.33,200.35,214.51,201.53Z" transform="translate(-106 -138)"/><path class="cls-21" d="M212.91,211.63a2.77,2.77,0,0,1-.59,1.07c-.86,1.08-2.73,2.4-6,2.4s-5.53-2.35-6.8-4a14.62,14.62,0,0,1-1-1.46,49.19,49.19,0,0,0,6.28,1.3,66.31,66.31,0,0,0,7.7.67Z" transform="translate(-106 -138)"/><path class="cls-22" d="M215.84,229.17c-7.21,4.57-13.78,3.53-19.63-1s-6.73-11.62-7.45-15.79a30.77,30.77,0,0,1-.4-3.56,37.84,37.84,0,0,0-.65-6.94,26.43,26.43,0,0,0-1.64-4,19.91,19.91,0,0,1-2-5.87c-.4-3.61,1-7.38,3.6-6.66l-.08-.33a7.51,7.51,0,0,1,1.53,6.06,28.81,28.81,0,0,0,.48,10.61c.72,3.41,3.36,8.7,5.61,17a12.26,12.26,0,0,0,15.95,8.58,14.79,14.79,0,0,0,9.05-11.7c.56-4.49-1.78-7.39-1.09-11.47a16,16,0,0,1,1.65,4.14C221.45,210.9,223.06,224.6,215.84,229.17Z" transform="translate(-106 -138)"/><path class="cls-22" d="M218.77,179.8a4.67,4.67,0,0,1-.58,1.16c-1.3,1.88-2.5,2.82-4.1,3.15a11.47,11.47,0,0,1-3.86-.06c-3.92-.56-9.77-.56-14.1,1-2.88,1.07-3.7,1.89-3.88,2.6-.33-.86,0-2.67,2.39-5.29,3-3.28,13.27-2.24,18.27-1C216.2,182.15,217.66,181.34,218.77,179.8Z" transform="translate(-106 -138)"/><path class="cls-13" d="M218.69,204.16a10.84,10.84,0,0,1-1.38,4.2c-1.5,1.9-2.13,2.48-7.5,2.24s-14.42-1.7-16.58-3.63-3.59-6-3.59-6c4.25-3.85,2.8-11.3,2.64-12.26s-.48-2,3.85-3.61,10.18-1.6,14.1-1a11.47,11.47,0,0,0,3.86.06,7.78,7.78,0,0,1,1,.81c-1.53.37-4,.33-8.32-.19-5-.6-12.43,1.32-13.14,3.48s.65,8.36-.67,10-2.32,3.13-2.2,3.49,2.76,5.08,3.7,5.25,7-3.18,12.09-2.41,8.11,3.9,9.16,3.78C216.49,208.2,217.9,206.55,218.69,204.16Z" transform="translate(-106 -138)"/><path class="cls-23" d="M217.31,211.47s-1.2.11-3.28.12h-.18l-1.37,0c-1.45,0-3.19-.14-5.14-.34l-.17,0-1.78-.22h0l-.61-.09c-2-.29-3.72-.64-5.17-1l-.16,0-.95-.26c-.58-.16-1.11-.32-1.59-.47l-.17-.06a19.64,19.64,0,0,1-2.87-1.14c.26-.15.53-.31.82-.46l.55-.27a32.36,32.36,0,0,1,8.07-2.57l.46-.06.41,0,.12.22.09.13c.06.09.13.17.19.25l.12.12a2.15,2.15,0,0,0,1.57.69h.33a4.15,4.15,0,0,0,2.24-.6l.12-.1a1.7,1.7,0,0,0,.24-.22,13.54,13.54,0,0,1,1.3.74,45.3,45.3,0,0,1,5.59,4.27h0C216.92,210.8,217.42,211.35,217.31,211.47Z" transform="translate(-106 -138)"/><path class="cls-24" d="M195.19,197.71c-.62.51-.25-5.47,2.48-6.06s4.05,4.5,4,5.38A5.36,5.36,0,0,0,195.19,197.71Z" transform="translate(-106 -138)"/><path class="cls-25" d="M207.52,205.47h0Z" transform="translate(-106 -138)"/><path class="cls-26" d="M207.52,205.47h0Z" transform="translate(-106 -138)"/><path class="cls-13" d="M209.77,195.91c-.14-.61-.51-4.82,2.59-5.33s3.87,5.45,3.39,5.93c0,0-.75-1.51-3.19-1.4S209.77,195.91,209.77,195.91Z" transform="translate(-106 -138)"/><path class="cls-21" d="M198.45,196.15a1.89,1.89,0,0,1-1.29,2.47,6.23,6.23,0,0,0,.91-.07c2.16-.32,3.41-.8,3.57-1.52A3.67,3.67,0,0,0,198.45,196.15Z" transform="translate(-106 -138)"/><path class="cls-21" d="M195.76,197.25a.31.31,0,0,0,0,.1c-.16.32-.32.6-.32.6s.3.53,1.39.64A1.37,1.37,0,0,1,195.76,197.25Z" transform="translate(-106 -138)"/><path class="cls-27" d="M196.91,198.62h.25c-.14,0-.26,0-.38,0Z" transform="translate(-106 -138)"/><path class="cls-27" d="M198.45,196.15l-.15,0c-2,.36-2.37.77-2.54,1.08a1.37,1.37,0,0,0,1,1.34c.12,0,.24,0,.38,0A1.89,1.89,0,0,0,198.45,196.15Z" transform="translate(-106 -138)"/><path class="cls-28" d="M198,195.26c-2.88.4-3.25,2.25-2.6,2.69,0,0,.16-.28.32-.6a.31.31,0,0,1,0-.1c.17-.31.56-.72,2.54-1.08l.15,0a3.67,3.67,0,0,1,3.19.88C202,196.63,200.88,194.86,198,195.26Z" transform="translate(-106 -138)"/><path class="cls-21" d="M212.82,195.38h-.06c.36.83.35,2.31-1.24,2.31-1.15,0-1.3-1.21-1.25-2a2.92,2.92,0,0,0-.5.2c0,.32.37,1.79,1.53,1.79s4.13-.27,4.45-1.19A4.35,4.35,0,0,0,212.82,195.38Z" transform="translate(-106 -138)"/><path class="cls-27" d="M210.27,195.71c-.05.77.1,2,1.25,2,1.59,0,1.6-1.48,1.24-2.31A6.94,6.94,0,0,0,210.27,195.71Z" transform="translate(-106 -138)"/><path class="cls-28" d="M212.64,194.54c-2.65-.08-2.91,1-2.87,1.37a2.92,2.92,0,0,1,.5-.2,6.94,6.94,0,0,1,2.49-.33h.06a4.35,4.35,0,0,1,2.93,1.13C216.23,196.07,215.28,194.62,212.64,194.54Z" transform="translate(-106 -138)"/><path class="cls-13" d="M196.08,193.17c-.3.26.31-1.39,2-1.51a2,2,0,0,1,1.92,1S197.4,192,196.08,193.17Z" transform="translate(-106 -138)"/><path class="cls-24" d="M210.26,192.22a2.43,2.43,0,0,1,2.1-1.64,2.73,2.73,0,0,1,2.38,1.23,4.47,4.47,0,0,0-2.62-.59A3.62,3.62,0,0,0,210.26,192.22Z" transform="translate(-106 -138)"/><path class="cls-13" d="M186.92,206.47c.73-2.45-1.43-7.16-2.38-9a1.84,1.84,0,0,1,1.53.35,26.43,26.43,0,0,1,1.64,4,37.84,37.84,0,0,1,.65,6.94,5.46,5.46,0,0,1-1.87-.6C186.57,207.75,186.71,207.2,186.92,206.47Z" transform="translate(-106 -138)"/><path class="cls-29" d="M212.91,211.63c0,.25.11.2-.24.64a42.58,42.58,0,0,1-13.19-1.21,14.62,14.62,0,0,1-1-1.46,49.19,49.19,0,0,0,6.28,1.3,66.31,66.31,0,0,0,7.7.67Z" transform="translate(-106 -138)"/><path class="cls-22" d="M210.5,205.78c-1.26.68-5.35,1.95-7.19-1.15l.46-.06.41,0a2.4,2.4,0,0,0,2.09,1.41,3.86,3.86,0,0,0,2.93-.92A13.54,13.54,0,0,1,210.5,205.78Z" transform="translate(-106 -138)"/><path class="cls-30" d="M205.39,211l-.61-.09a49.19,49.19,0,0,1-6.28-1.3,24.83,24.83,0,0,1-4.63-1.67c.26-.15.53-.31.82-.46a29.92,29.92,0,0,0,6.62,2.53C203.09,210.39,204.63,210.76,205.39,211Z" transform="translate(-106 -138)"/><g class="cls-31"><path class="cls-19" d="M215.33,180.29a6.55,6.55,0,0,1-2,2,10.62,10.62,0,0,1-2.59,1.34,8.45,8.45,0,0,1-1.59.32l-.78-.08.68-.07a8.07,8.07,0,0,0,2.92-.9,9.43,9.43,0,0,0,2.62-1.85A7.22,7.22,0,0,0,216,178.5a8.22,8.22,0,0,0-1.26-8,6.26,6.26,0,0,1,.57.45A8.62,8.62,0,0,1,215.33,180.29Z" transform="translate(-106 -138)"/><path class="cls-19" d="M210.88,180.19a12.55,12.55,0,0,1-5.58,3.52h-.57c2.87-.91,5.64-2.45,7.05-5.15a10.18,10.18,0,0,0,.08-9.56l.23.07a7.08,7.08,0,0,1,.48,1A10.46,10.46,0,0,1,210.88,180.19Z" transform="translate(-106 -138)"/><path class="cls-19" d="M209.94,170.35a18.87,18.87,0,0,1-.44,3.18,10.77,10.77,0,0,1-2.89,5.4,25.08,25.08,0,0,1-5.08,3.44,13.94,13.94,0,0,0-2.72,2h0l-.28.06a10.76,10.76,0,0,1,2.32-1.8,35.18,35.18,0,0,0,5.07-3.24,10.6,10.6,0,0,0,3.37-5.6,17.87,17.87,0,0,0,.49-3.4,4.51,4.51,0,0,0-.3-1.75h.18a2.58,2.58,0,0,1,.08.26A3.93,3.93,0,0,1,209.94,170.35Z" transform="translate(-106 -138)"/><path class="cls-19" d="M208.32,170a11.74,11.74,0,0,1-2,5.27,15.81,15.81,0,0,1-2,2.49,13.06,13.06,0,0,1-2.64,2c-2,1.18-4.2,2.13-6.13,3.49-1.23.86-2.83,2.2-2.93,3.81a1.46,1.46,0,0,0-.16.21,3.31,3.31,0,0,1,.66-1.94,13,13,0,0,1,4.41-3.52c2.08-1.16,4.42-2.08,6.21-3.69a14.63,14.63,0,0,0,3.68-5.22,8.59,8.59,0,0,0,.73-4.28h.16A6,6,0,0,1,208.32,170Z" transform="translate(-106 -138)"/><path class="cls-19" d="M203.52,174.94a12.41,12.41,0,0,1-3.48,3c-1.41.84-2.88,1.55-4.27,2.43a9.09,9.09,0,0,0-3.39,3.24,5.47,5.47,0,0,0-.68,2.65,4.15,4.15,0,0,0,.51,1.91h0c0,.13,0,.27,0,.4a4.3,4.3,0,0,1-.68-2.93,6.09,6.09,0,0,1,1.25-3c2-2.48,5.19-3.53,7.77-5.24a11.18,11.18,0,0,0,3.57-3.7,6.63,6.63,0,0,0,1.06-4.77l.16,0C205.92,171,204.77,173.32,203.52,174.94Z" transform="translate(-106 -138)"/><path class="cls-19" d="M203.11,169.48a29.08,29.08,0,0,1-6,5.94,41.34,41.34,0,0,0-4.78,4.08,12.08,12.08,0,0,0-2.28,3.53,5.93,5.93,0,0,0-.52,4,3,3,0,0,0,1.16,1.6,4.67,4.67,0,0,0,1.68.67l0,.18a4.64,4.64,0,0,1-1.51-.54,3.23,3.23,0,0,1-1.19-1.13,4.36,4.36,0,0,1-.33-3.21,11.39,11.39,0,0,1,1.73-3.8,18.5,18.5,0,0,1,3.57-3.61c2.88-2.38,6-4.55,8.17-7.61h0Z" transform="translate(-106 -138)"/></g><g class="cls-32"><path class="cls-19" d="M204.3,204.77l.09.13a20,20,0,0,0-4.08,2,37.6,37.6,0,0,0-3.4,2.24l-.17-.06a35.17,35.17,0,0,1,3.37-2.24A20.89,20.89,0,0,1,204.3,204.77Z" transform="translate(-106 -138)"/><path class="cls-19" d="M204.7,205.27a9.68,9.68,0,0,0-3.23,2.19,9.08,9.08,0,0,0-1.86,2.44l-.16,0a9,9,0,0,1,1.83-2.43,9.92,9.92,0,0,1,3.3-2.28Z" transform="translate(-106 -138)"/><path class="cls-19" d="M214,211.59h-.18a26.49,26.49,0,0,0-5-6.23l.12-.1A26.11,26.11,0,0,1,214,211.59Z" transform="translate(-106 -138)"/><path class="cls-19" d="M207.34,211.23l-.17,0a51.37,51.37,0,0,1-.73-5.25h.16A49.48,49.48,0,0,0,207.34,211.23Z" transform="translate(-106 -138)"/></g><path class="cls-13" d="M241.31,232.54s-6-10.94-10.89-15c.76-.26,1.7-.55,2.77-.82C237.07,219.46,241.71,226.93,241.31,232.54Z" transform="translate(-106 -138)"/><path class="cls-13" d="M171.39,212.47c-9.07,4.88-15.65,19.39-15.65,19.39a18.08,18.08,0,0,1,.68-11.37,7.9,7.9,0,0,1,1.74,2.59C159.39,220.39,164.06,213.75,171.39,212.47Z" transform="translate(-106 -138)"/><path class="cls-13" d="M294.38,268.47c.08,2-2.65,2.16-2.65,2.16s-8.65,10.74-14,16.35-20.35,14.27-28.45,17.23a57.13,57.13,0,0,1-16.83,3.05s-2.17-.05-3.91,0a19.37,19.37,0,0,1,1.73-1.5c2.4-1.8,8.17-.37,27.65-10.7s21.88-20.9,21.88-20.9c6.73-2.15,8.65-5.79,10.55-9.64.74,1.57,1.16,2.54,1.16,2.54C293.1,266,294.3,266.47,294.38,268.47Z" transform="translate(-106 -138)"/><path class="cls-13" d="M264.15,241.71s-6.3-14.67-16.6-24.43a12.66,12.66,0,0,1,2.59,1.58,57.39,57.39,0,0,1,11.62,13.21l.41.18A24.85,24.85,0,0,1,264.15,241.71Z" transform="translate(-106 -138)"/><path class="cls-13" d="M247.11,245.63c0,.15,7.1,3,14.72-4.3,0,0-.06,6.41-5.36,7.55S247.11,245.63,247.11,245.63Z" transform="translate(-106 -138)"/><path class="cls-13" d="M165.74,248.61c.07.17.14.34.23.52C165.89,249,165.82,248.78,165.74,248.61Zm80.94-.88.43-.61c-1.32-1.2-3,1.68-4.81,5.41s-4.21,10.22-8.05,14.54-12.5,6.26-18.5,6.74-10.35-.73-18.59-.73-18.93-4.32-21.21-7-9.74-19.83-10.82-22.47-2.64-2.29-4.2-2.85l1.56,1.4c1.36,1.23,3.53,6.64,4.56,9.14-2-4.61-7.21-4.69-7.21-4.69-22,1.54-36.83-9.52-40.2-16.35-2.29-4.66-2.86-13.82-3.14-22.27-.07.66-.14,1.31-.19,1.95-.8,9.94,1.2,24.12,5.69,29.41,0,0-2.16,1.6-.56,2.89s3-.89,3-.89A56.57,56.57,0,0,0,139.07,249c7.69,2.4,21.72,3.92,24,5.21l.08,0,.07.05.07,0a20.61,20.61,0,0,1,5.33,5.83,39.36,39.36,0,0,1,3.79,6.45l0,.09a31.3,31.3,0,0,1,1.24,4.76c1.07,5.14,2.24,12.65,3.09,16.95,1.2,6.1,1.36,16.19,4.16,18.12.61.41.33.09.26,0h0l.11,0,.41.08c-2.52-4.14-3.44-18.21-3.6-24.06-.11-4.23-1.86-8.61-3.83-13.22a12.47,12.47,0,0,0,.12-1.49c5.16,3.55,7.39,3.84,11.7,5,.4.11.82.2,1.27.29-.87,3.75-.48,10.3.65,16.42,1.2,6.49,2.58,19.21,14.76,19.38H204v0c5.28-.4,9.43-3.72,12.41-9.12a37.14,37.14,0,0,0,3-7.43,66.94,66.94,0,0,0,2.47-17.85,41.1,41.1,0,0,0,10.43-2.73,7.6,7.6,0,0,0,2-1.28,130.71,130.71,0,0,0-4.72,15.23c-2,8-6.64,17.91-7.93,22.77a18.27,18.27,0,0,0,3.87-.59,55.17,55.17,0,0,0,4.73-9.49,11.68,11.68,0,0,0-1.65-1.28c.8-3.33,1.7-7,2.57-10.3a162.47,162.47,0,0,1,6.57-19.31c1-2.29,4.43-6.45,6.33-9.49h0a9.29,9.29,0,0,0,1.22-2.54s.31.6.9,1.5l.39.59.16.23.54.75.29.38c.25.32.51.65.79,1l.12.13c.27.33.57.65.88,1l.29.3.18.18.15.15.18.17c2.61,2.47,8.75,6.23,10.45,7.26a30.86,30.86,0,0,1,8.3-.77C253,264.62,247.58,251.8,246.68,247.73Zm-57.75,25.68c3.61.55,8.38,1.22,13.22,1.49,0,.46-.18,3.4-.28,7.89-6.93-.4-10.81-2.18-12.82-3.46C189,276.72,188.93,274.57,188.93,273.41Zm.22,8.23a35.16,35.16,0,0,0,12.68,2.91c-.05,2.25-.08,4.71-.08,7.19-6.93-.06-10.33-1.76-12-2.91C189.45,286.41,189.27,283.92,189.15,281.64Zm1.22,11.76c-.13-.74-.25-1.52-.36-2.3a39.19,39.19,0,0,0,11.74,2.81c0,2.49.07,4.94.16,7.16-5-.16-8.44-1.26-9.91-2.13A24.72,24.72,0,0,1,190.37,293.4Zm2.8,7.72a34.83,34.83,0,0,0,8.82,1.62c.09,1.4.19,2.67.32,3.76A11.67,11.67,0,0,1,193.17,301.12ZM204,306.61c0-1-.06-2.31-.09-3.82a43.92,43.92,0,0,0,9.14-1C210.39,306,208.13,306.8,204,306.61Zm12-10.69c-.76,1.67-1.45,3.1-2.11,4.31a73.22,73.22,0,0,1-10.05.85c0-2.11-.08-4.52-.11-7a54.17,54.17,0,0,0,13.48-1.18C216.83,293.9,216.43,294.92,216,295.92Zm1.93-5.26c-2.52.32-7.32.82-14.22,1,0-1.23,0-2.48,0-3.72s0-2.27,0-3.38a79,79,0,0,0,15.78-1.34A54.48,54.48,0,0,1,217.91,290.66Zm1.81-9.41c-3.11,1-8.4,1.81-16,1.61,0-3.17.14-5.49.31-7.7,4.21.76,9.42.66,16-.53A48.86,48.86,0,0,1,219.72,281.25Z" transform="translate(-106 -138)"/><path class="cls-33" d="M176.7,260.77c-1.17,1.11,1.66,5.06,2.72,3.54S177.86,259.65,176.7,260.77Z" transform="translate(-106 -138)"/><path class="cls-33" d="M231.84,262.23c.78.73-1.6,3.76-3.08,2.8S230.28,260.75,231.84,262.23Z" transform="translate(-106 -138)"/><path class="cls-34" d="M235.59,307.08c-.34,0-2.6.14-2.6.14-4.14,5.55-10.34,6.68-11,6a.24.24,0,0,1-.06-.18c0-.68,1.89-2.59,3.24-3.89l-.29.25,0,0c-3.17,2.72-5.83,3.89-6.56,3.37l-.07-.07c-.5-.57,2.36-3.63,4.05-5.35h0l.53-.54c-.25.25-.51.49-.76.72h0c-.51.47-1,.91-1.46,1.29h0c-1.84,1.51-3.29,2.2-3.92,1.33h0c-.46-.64.67-2.11,1.93-3.44l.3-.3c-1.2,1-2.15,1.57-2.58,1.2l0,0c-.59-.64.67-2.83,2.29-4.6s5.71-6.58,7.91-6.63a6.1,6.1,0,0,1,4.86,2.78l1.44-.48c1.14,1.33,2,4,2.52,6A5.7,5.7,0,0,1,235.59,307.08Z" transform="translate(-106 -138)"/><path class="cls-13" d="M235.59,307.08c-.34,0-2.6.14-2.6.14-4.14,5.55-10.34,6.68-11,6a.24.24,0,0,1-.06-.18c2.21-.59,7.46-3.84,10.08-6.69a9.92,9.92,0,0,1,3.17-2.1A8.89,8.89,0,0,1,235.59,307.08Z" transform="translate(-106 -138)"/><path class="cls-13" d="M226.55,307.86l-1.68,1.55,0,0c-3.17,2.72-5.83,3.89-6.56,3.37a27.2,27.2,0,0,0,5.64-4.25c2.73-2.45,4.22-3,4.39-3A6.19,6.19,0,0,1,226.55,307.86Z" transform="translate(-106 -138)"/><path class="cls-13" d="M227,303.58s-2.19,1.7-4.76,3.8h0l-.23.18h0c-.54.44-1,.88-1.46,1.29h0c-1.84,1.51-3.29,2.2-3.92,1.33a30.25,30.25,0,0,0,4.72-3.72A13.28,13.28,0,0,1,227,303.58Z" transform="translate(-106 -138)"/><path class="cls-13" d="M220.71,304.76c-.49.41-1,.89-1.58,1.45h0l-.56.52.3-.3c-1.2,1-2.15,1.57-2.58,1.2l0,0a43.69,43.69,0,0,1,3.57-3.7,6.17,6.17,0,0,1,4.65-1.6A21.82,21.82,0,0,0,220.71,304.76Z" transform="translate(-106 -138)"/><path class="cls-13" d="M134.24,193.09c-.84-5.47.36-12.08,1-12.8.14-.17.42-.09.8.11h0l.17.1h0l.36.21.08.05.17.1c1.39.83,3.42,2,5.31,1l.14,0a.13.13,0,0,0,0-.06l.32.1h0a1.52,1.52,0,0,0,1.2-.36,13,13,0,0,1-2.17-.85c-1.48-.8-6-3.88-6.09-3.93a18.74,18.74,0,0,0,6.38,4.91,10.5,10.5,0,0,1-3.34-.5,22.86,22.86,0,0,1-3.64-2.38l-.12-.12v0c-.16-.13-.29-.24-.39-.34l.34.46c-1.94,4.61-5.68,15.76-2.82,22.9s11.3,19.89,7.69,29.54c0,0,2.56-3.77,5.55-7.76h0c.13-2.45.1-8.53-3.1-12.85C138,205.17,135.08,198.55,134.24,193.09Z" transform="translate(-106 -138)"/><path class="cls-13" d="M134.22,178.23a1.23,1.23,0,0,0,.17.19C134.06,178,134,177.79,134.22,178.23Z" transform="translate(-106 -138)"/><path class="cls-13" d="M143.44,180.27c-1.52-1.15-5.41-4.8-5.41-4.8a43.36,43.36,0,0,0,4.23,4.41c.65.51,1.19,1,1.75,1.35l0-.11s1.84,1,2.16.16a1.56,1.56,0,0,0,.06-.15A4.66,4.66,0,0,1,143.44,180.27Z" transform="translate(-106 -138)"/><path class="cls-13" d="M146.2,180.2l.1,0a22,22,0,0,1-2.1-2.38,42.34,42.34,0,0,0-3.93-4.44,35.05,35.05,0,0,0,4.21,5.69,8.14,8.14,0,0,0,1.87,1.59A.6.6,0,0,0,146.2,180.2Z" transform="translate(-106 -138)"/><path class="cls-13" d="M142.89,170.79h-.37a4.92,4.92,0,0,0-.26-.48v.2c1,2,3.77,6.71,4.4,7.73a.82.82,0,0,0,.52-.24A43.7,43.7,0,0,0,142.89,170.79Z" transform="translate(-106 -138)"/><g class="cls-35"><path class="cls-36" d="M206.76,206.71c2.57-.23,3.26-1.4,2.73-3.35a9.93,9.93,0,0,0-.43-1.21c-1.16-2.68-3.58-8.45-3.58-8.45.53,1.9-.75,5-1.29,7.94a15.81,15.81,0,0,0-.26,2.22C203.89,205.69,204.51,206.91,206.76,206.71Z" transform="translate(-106 -138)"/></g><path class="cls-37" d="M206.76,206.72c2.58-.23,3.26-1.39,2.73-3.35-.24,1.56-.77,2.4-2.36,2.47a3.13,3.13,0,0,1-3.2-2C203.89,205.71,204.51,206.93,206.76,206.72Z" transform="translate(-106 -138)"/><path class="cls-38" d="M207,204.25c-.39.71-1.75-.27-1.51-.77C205.77,202.81,207.37,203.48,207,204.25Z" transform="translate(-106 -138)"/></g></g></svg>