<svg width="20" height="12" viewBox="0 0 20 12" fill="none" xmlns="http://www.w3.org/2000/svg">
<path fill-rule="evenodd" clip-rule="evenodd" d="M9.96203 11.7123H11.1224C11.1224 11.7123 11.4705 11.6525 11.6446 11.4732C11.8187 11.2938 11.8187 10.9352 11.8187 10.9352C11.8187 10.9352 11.8187 9.38097 12.5149 9.14186C13.2111 8.90275 14.1394 10.6961 15.0677 11.3536C15.764 11.8916 16.2861 11.7721 16.2861 11.7721L18.839 11.7123C18.839 11.7123 20.1734 11.6525 19.5352 10.5167C19.4772 10.457 19.1871 9.73963 17.6206 8.2452C15.996 6.69098 16.2281 6.98987 18.1428 4.29988C19.3032 2.68589 19.7673 1.72945 19.6513 1.25123C19.5352 0.832786 18.6649 0.952341 18.6649 0.952341H15.764C15.764 0.952341 15.5319 0.892563 15.4159 1.01212C15.2418 1.13167 15.1838 1.31101 15.1838 1.31101C15.1838 1.31101 14.7196 2.56633 14.1394 3.64233C12.863 5.8541 12.3408 5.97365 12.1668 5.8541C11.7026 5.55521 11.8187 4.53899 11.8187 3.88144C11.8187 1.72945 12.1668 0.832785 11.1804 0.593675C10.8903 0.533898 10.6583 0.474121 9.84599 0.474121C8.80164 0.474121 7.93135 0.474121 7.4672 0.713231C7.11908 0.892563 6.887 1.25123 7.06106 1.25123C7.23512 1.25123 7.69928 1.37078 7.93135 1.66967C8.16343 2.20767 8.16343 3.10433 8.16343 3.10433C8.16343 3.10433 8.33749 5.67476 7.75729 5.97365C7.35116 6.21276 6.82898 5.73454 5.6686 3.70211C5.0884 2.68589 4.62425 1.49034 4.62425 1.49034C4.62425 1.49034 4.56623 1.25123 4.39217 1.13167C4.21811 1.01212 3.92801 0.952341 3.92801 0.952341H1.2011C1.2011 0.952341 0.794967 0.952341 0.620909 1.13167C0.50487 1.31101 0.620909 1.60989 0.620909 1.60989C0.620909 1.60989 2.76763 6.75076 5.20444 9.38097C7.4672 11.8916 9.96203 11.7123 9.96203 11.7123Z" fill="url(#paint0_linear_404_446)"/>
<defs>
<linearGradient id="paint0_linear_404_446" x1="10.1387" y1="0.474121" x2="10.1387" y2="11.7834" gradientUnits="userSpaceOnUse">
<stop stop-color="#40F214"/>
<stop offset="1" stop-color="#15D028"/>
</linearGradient>
</defs>
</svg>
