<svg width="100" height="23" viewBox="0 0 100 23" fill="none" xmlns="http://www.w3.org/2000/svg">
<path d="M6.17948 6.16872V8.50421H14.9058V11.3674H6.17948V16.7322H2.55409V3.30554H15.3846V6.16872H6.17948ZM18.4823 16.7322V3.30554H22.1077V16.7322H18.4823ZM25.5377 16.7322V13.9276L34.3617 6.24689H25.8015V3.30554H39.5702V5.76807L30.3455 13.7908H39.7656V16.7322H25.5377Z" fill="url(#paint0_linear_254_253)"/>
<path d="M6.17948 6.16872V6.00194H6.0127V6.16872H6.17948ZM6.17948 8.50421H6.0127V8.67098H6.17948V8.50421ZM14.9058 8.50421H15.0726V8.33743H14.9058V8.50421ZM14.9058 11.3674V11.5342H15.0726V11.3674H14.9058ZM6.17948 11.3674V11.2006H6.0127V11.3674H6.17948ZM6.17948 16.7322V16.899H6.34625V16.7322H6.17948ZM2.55409 16.7322H2.38732V16.899H2.55409V16.7322ZM2.55409 3.30554V3.13877H2.38732V3.30554H2.55409ZM15.3846 3.30554H15.5514V3.13877H15.3846V3.30554ZM15.3846 6.16872V6.33549H15.5514V6.16872H15.3846ZM6.0127 6.16872V8.50421H6.34625V6.16872H6.0127ZM6.17948 8.67098H14.9058V8.33743H6.17948V8.67098ZM14.739 8.50421V11.3674H15.0726V8.50421H14.739ZM14.9058 11.2006H6.17948V11.5342H14.9058V11.2006ZM6.0127 11.3674V16.7322H6.34625V11.3674H6.0127ZM6.17948 16.5654H2.55409V16.899H6.17948V16.5654ZM2.72087 16.7322V3.30554H2.38732V16.7322H2.72087ZM2.55409 3.47231H15.3846V3.13877H2.55409V3.47231ZM15.2179 3.30554V6.16872H15.5514V3.30554H15.2179ZM15.3846 6.00194H6.17948V6.33549H15.3846V6.00194ZM18.4823 16.7322H18.3156V16.899H18.4823V16.7322ZM18.4823 3.30554V3.13877H18.3156V3.30554H18.4823ZM22.1077 3.30554H22.2745V3.13877H22.1077V3.30554ZM22.1077 16.7322V16.899H22.2745V16.7322H22.1077ZM18.6491 16.7322V3.30554H18.3156V16.7322H18.6491ZM18.4823 3.47231H22.1077V3.13877H18.4823V3.47231ZM21.941 3.30554V16.7322H22.2745V3.30554H21.941ZM22.1077 16.5654H18.4823V16.899H22.1077V16.5654ZM25.5377 16.7322H25.3709V16.899H25.5377V16.7322ZM25.5377 13.9276L25.4282 13.8018L25.3709 13.8517V13.9276H25.5377ZM34.3617 6.24689L34.4712 6.37269L34.8074 6.08012H34.3617V6.24689ZM25.8015 6.24689H25.6347V6.41367H25.8015V6.24689ZM25.8015 3.30554V3.13877H25.6347V3.30554H25.8015ZM39.5702 3.30554H39.737V3.13877H39.5702V3.30554ZM39.5702 5.76807L39.6796 5.89391L39.737 5.84405V5.76807H39.5702ZM30.3455 13.7908L30.236 13.665L29.8996 13.9576H30.3455V13.7908ZM39.7656 13.7908H39.9324V13.6241H39.7656V13.7908ZM39.7656 16.7322V16.899H39.9324V16.7322H39.7656ZM25.7045 16.7322V13.9276H25.3709V16.7322H25.7045ZM25.6472 14.0534L34.4712 6.37269L34.2522 6.1211L25.4282 13.8018L25.6472 14.0534ZM34.3617 6.08012H25.8015V6.41367H34.3617V6.08012ZM25.9683 6.24689V3.30554H25.6347V6.24689H25.9683ZM25.8015 3.47231H39.5702V3.13877H25.8015V3.47231ZM39.4034 3.30554V5.76807H39.737V3.30554H39.4034ZM39.4607 5.64223L30.236 13.665L30.4549 13.9167L39.6796 5.89391L39.4607 5.64223ZM30.3455 13.9576H39.7656V13.6241H30.3455V13.9576ZM39.5988 13.7908V16.7322H39.9324V13.7908H39.5988ZM39.7656 16.5654H25.5377V16.899H39.7656V16.5654Z" fill="url(#paint1_linear_254_253)"/>
<path d="M47.1023 16.7322H43.4769V3.30554H52.5648C53.542 3.30554 54.3694 3.40652 55.0469 3.60847C55.7309 3.81042 56.2847 4.09707 56.7081 4.4684C57.1381 4.83973 57.4476 5.28924 57.6365 5.81693C57.8319 6.3381 57.9296 6.92116 57.9296 7.5661C57.9296 8.13288 57.8482 8.62799 57.6853 9.05144C57.529 9.47489 57.314 9.83971 57.0404 10.1459C56.7733 10.4456 56.4606 10.6996 56.1023 10.9081C55.744 11.1166 55.3661 11.2892 54.9687 11.426L59.3661 16.7322H55.1251L51.06 11.7876H47.1023V16.7322ZM54.2652 7.54656C54.2652 7.28597 54.2293 7.06448 54.1577 6.88207C54.0925 6.69966 53.9753 6.55308 53.8059 6.44233C53.6365 6.32507 53.4085 6.24038 53.1218 6.18826C52.8417 6.13614 52.4899 6.11008 52.0665 6.11008H47.1023V8.98303H52.0665C52.4899 8.98303 52.8417 8.95698 53.1218 8.90486C53.4085 8.85274 53.6365 8.77131 53.8059 8.66056C53.9753 8.5433 54.0925 8.39346 54.1577 8.21105C54.2293 8.02864 54.2652 7.80714 54.2652 7.54656ZM77.6592 12.2078C77.6592 12.8788 77.493 13.5107 77.1608 14.1035C76.8286 14.6964 76.3302 15.2143 75.6657 15.6573C75.0012 16.1003 74.1706 16.452 73.1739 16.7126C72.1836 16.9667 71.024 17.0937 69.695 17.0937C68.3661 17.0937 67.1999 16.9667 66.1967 16.7126C65.2 16.452 64.3693 16.1003 63.7048 15.6573C63.0404 15.2143 62.542 14.6964 62.2097 14.1035C61.8775 13.5107 61.7114 12.8788 61.7114 12.2078V3.30554H65.327V10.9081C65.327 11.3576 65.3824 11.7843 65.4931 12.1882C65.6104 12.5856 65.8254 12.9342 66.1381 13.2338C66.4573 13.5335 66.9003 13.7713 67.467 13.9472C68.0403 14.1231 68.783 14.211 69.695 14.211C70.6006 14.211 71.3367 14.1231 71.9035 13.9472C72.4703 13.7713 72.91 13.5335 73.2227 13.2338C73.5419 12.9342 73.7569 12.5856 73.8677 12.1882C73.9784 11.7843 74.0338 11.3576 74.0338 10.9081V3.30554H77.6592V12.2078ZM85.4083 8.42603L92.835 3.30554H97.6916L88.6526 9.74524L98.2975 16.7322H93.0109L85.4083 11.1524V16.7322H81.7634V3.30554H85.4083V8.42603Z" fill="#F5F5F5"/>
<path d="M47.1023 16.7322V16.899H47.2691V16.7322H47.1023ZM43.4769 16.7322H43.3102V16.899H43.4769V16.7322ZM43.4769 3.30554V3.13877H43.3102V3.30554H43.4769ZM55.0469 3.60847L54.9993 3.7683L54.9997 3.76842L55.0469 3.60847ZM56.7081 4.4684L56.5982 4.59379L56.5991 4.59462L56.7081 4.4684ZM57.6365 5.81693L57.4794 5.87315L57.4803 5.87548L57.6365 5.81693ZM57.6853 9.05144L57.5297 8.99156L57.5289 8.99367L57.6853 9.05144ZM57.0404 10.1459L56.916 10.0348L56.9159 10.0349L57.0404 10.1459ZM54.9687 11.426L54.9145 11.2683L54.6865 11.3468L54.8403 11.5324L54.9687 11.426ZM59.3661 16.7322V16.899H59.7209L59.4945 16.6258L59.3661 16.7322ZM55.1251 16.7322L54.9963 16.8381L55.0463 16.899H55.1251V16.7322ZM51.06 11.7876L51.1888 11.6817L51.1388 11.6208H51.06V11.7876ZM47.1023 11.7876V11.6208H46.9356V11.7876H47.1023ZM54.1577 6.88207L54.0005 6.93819L54.0024 6.94305L54.1577 6.88207ZM53.8059 6.44233L53.7109 6.5795L53.7146 6.58192L53.8059 6.44233ZM53.1218 6.18826L53.0913 6.35222L53.092 6.35234L53.1218 6.18826ZM47.1023 6.11008V5.94331H46.9356V6.11008H47.1023ZM47.1023 8.98303H46.9356V9.14981H47.1023V8.98303ZM53.1218 8.90486L53.092 8.74077L53.0913 8.7409L53.1218 8.90486ZM53.8059 8.66056L53.8972 8.80019L53.9008 8.79768L53.8059 8.66056ZM54.1577 8.21105L54.0024 8.15004L54.0006 8.15496L54.1577 8.21105ZM47.1023 16.5654H43.4769V16.899H47.1023V16.5654ZM43.6437 16.7322V3.30554H43.3102V16.7322H43.6437ZM43.4769 3.47231H52.5648V3.13877H43.4769V3.47231ZM52.5648 3.47231C53.5316 3.47231 54.3418 3.57233 54.9993 3.76829L55.0946 3.44864C54.3969 3.2407 53.5525 3.13877 52.5648 3.13877V3.47231ZM54.9997 3.76842C55.6665 3.96529 56.1971 4.24203 56.5982 4.59379L56.8181 4.34301C56.3723 3.9521 55.7954 3.65555 55.0941 3.44852L54.9997 3.76842ZM56.5991 4.59462C57.0076 4.94742 57.3004 5.37293 57.4795 5.87314L57.7935 5.76071C57.5947 5.20556 57.2686 4.73205 56.8171 4.34218L56.5991 4.59462ZM57.4803 5.87548C57.6677 6.37521 57.7629 6.93803 57.7629 7.5661H58.0964C58.0964 6.90428 57.9961 6.30098 57.7926 5.75837L57.4803 5.87548ZM57.7629 7.5661C57.7629 8.11732 57.6836 8.59132 57.5297 8.99157L57.841 9.11131C58.0128 8.66465 58.0964 8.14843 58.0964 7.5661H57.7629ZM57.5289 8.99367C57.3791 9.39943 57.1744 9.74567 56.916 10.0348L57.1647 10.257C57.4536 9.93374 57.6789 9.55034 57.8418 9.1092L57.5289 8.99367ZM56.9159 10.0349C56.6609 10.321 56.362 10.564 56.0184 10.764L56.1862 11.0523C56.5592 10.8352 56.8857 10.5701 57.1649 10.2569L56.9159 10.0349ZM56.0184 10.764C55.6696 10.9669 55.3017 11.135 54.9145 11.2683L55.023 11.5837C55.4306 11.4434 55.8183 11.2663 56.1862 11.0523L56.0184 10.764ZM54.8403 11.5324L59.2377 16.8386L59.4945 16.6258L55.0971 11.3196L54.8403 11.5324ZM59.3661 16.5654H55.1251V16.899H59.3661V16.5654ZM55.2539 16.6263L51.1888 11.6817L50.9311 11.8935L54.9963 16.8381L55.2539 16.6263ZM51.06 11.6208H47.1023V11.9544H51.06V11.6208ZM46.9356 11.7876V16.7322H47.2691V11.7876H46.9356ZM54.4319 7.54656C54.4319 7.2716 54.3942 7.02816 54.3129 6.82109L54.0024 6.94305C54.0644 7.10079 54.0984 7.30035 54.0984 7.54656H54.4319ZM54.3147 6.82598C54.2368 6.60769 54.0955 6.43245 53.8971 6.30275L53.7146 6.58192C53.855 6.67371 53.9483 6.79162 54.0006 6.93816L54.3147 6.82598ZM53.9008 6.30521C53.7056 6.17004 53.4527 6.07891 53.1517 6.02418L53.092 6.35234C53.3643 6.40185 53.5674 6.4801 53.7109 6.57945L53.9008 6.30521ZM53.1523 6.0243C52.8586 5.96965 52.4957 5.94331 52.0665 5.94331V6.27686C52.4841 6.27686 52.8248 6.30264 53.0913 6.35222L53.1523 6.0243ZM52.0665 5.94331H47.1023V6.27686H52.0665V5.94331ZM46.9356 6.11008V8.98303H47.2691V6.11008H46.9356ZM47.1023 9.14981H52.0665V8.81626H47.1023V9.14981ZM52.0665 9.14981C52.4957 9.14981 52.8586 9.12347 53.1523 9.06882L53.0913 8.7409C52.8248 8.79048 52.4841 8.81626 52.0665 8.81626V9.14981ZM53.1517 9.06894C53.4514 9.01445 53.7028 8.92719 53.8971 8.80015L53.7146 8.52097C53.5702 8.61542 53.3656 8.69103 53.092 8.74077L53.1517 9.06894ZM53.9008 8.79768C54.0969 8.6619 54.2371 8.48454 54.3147 8.26714L54.0006 8.15496C53.948 8.30238 53.8536 8.42469 53.7109 8.52344L53.9008 8.79768ZM54.3129 8.27203C54.3942 8.06495 54.4319 7.82152 54.4319 7.54656H54.0984C54.0984 7.79276 54.0644 7.99233 54.0024 8.15007L54.3129 8.27203ZM73.1739 16.7126L73.2153 16.8742L73.216 16.874L73.1739 16.7126ZM66.1967 16.7126L66.1545 16.874L66.1557 16.8743L66.1967 16.7126ZM62.2097 14.1035L62.0643 14.1851L62.2097 14.1035ZM61.7114 3.30554V3.13877H61.5446V3.30554H61.7114ZM65.327 3.30554H65.4938V3.13877H65.327V3.30554ZM65.4931 12.1882L65.3322 12.2323L65.3332 12.2354L65.4931 12.1882ZM66.1381 13.2338L66.0227 13.3542L66.0239 13.3554L66.1381 13.2338ZM67.467 13.9472L67.4176 14.1065L67.4181 14.1066L67.467 13.9472ZM73.2227 13.2338L73.1086 13.1122L73.1073 13.1134L73.2227 13.2338ZM73.8677 12.1882L74.0283 12.233L74.0285 12.2323L73.8677 12.1882ZM74.0338 3.30554V3.13877H73.867V3.30554H74.0338ZM77.6592 3.30554H77.8259V3.13877H77.6592V3.30554ZM77.4924 12.2078C77.4924 12.8498 77.3338 13.4537 77.0153 14.022L77.3063 14.1851C77.6523 13.5677 77.8259 12.9077 77.8259 12.2078H77.4924ZM77.0153 14.022C76.698 14.5881 76.2196 15.0876 75.5732 15.5185L75.7582 15.796C76.4408 15.341 76.9591 14.8046 77.3063 14.1851L77.0153 14.022ZM75.5732 15.5185C74.9278 15.9487 74.1154 16.2941 73.1317 16.5513L73.216 16.874C74.2258 16.61 75.0746 16.2518 75.7582 15.796L75.5732 15.5185ZM73.1324 16.5511C72.1591 16.8008 71.014 16.927 69.695 16.927V17.2605C71.0341 17.2605 72.2082 17.1326 73.2153 16.8742L73.1324 16.5511ZM69.695 16.927C68.3762 16.927 67.2243 16.8008 66.2376 16.551L66.1557 16.8743C67.1755 17.1326 68.3559 17.2605 69.695 17.2605V16.927ZM66.2389 16.5513C65.2551 16.2941 64.4427 15.9487 63.7974 15.5185L63.6123 15.796C64.296 16.2518 65.1448 16.61 66.1545 16.874L66.2389 16.5513ZM63.7974 15.5185C63.151 15.0876 62.6725 14.5881 62.3552 14.022L62.0643 14.1851C62.4115 14.8046 62.9297 15.341 63.6123 15.796L63.7974 15.5185ZM62.3552 14.022C62.0368 13.4537 61.8781 12.8498 61.8781 12.2078H61.5446C61.5446 12.9077 61.7182 13.5677 62.0643 14.1851L62.3552 14.022ZM61.8781 12.2078V3.30554H61.5446V12.2078H61.8781ZM61.7114 3.47231H65.327V3.13877H61.7114V3.47231ZM65.1602 3.30554V10.9081H65.4938V3.30554H65.1602ZM65.1602 10.9081C65.1602 11.3714 65.2173 11.813 65.3323 12.2323L65.6539 12.1441C65.5474 11.7556 65.4938 11.3438 65.4938 10.9081H65.1602ZM65.3332 12.2354C65.459 12.662 65.69 13.0354 66.0227 13.3542L66.2535 13.1134C65.9607 12.8329 65.7617 12.5093 65.6531 12.141L65.3332 12.2354ZM66.0239 13.3554C66.3669 13.6774 66.8348 13.9256 67.4176 14.1065L67.5165 13.7879C66.9657 13.617 66.5476 13.3896 66.2522 13.1122L66.0239 13.3554ZM67.4181 14.1066C68.0132 14.2892 68.7741 14.3778 69.695 14.3778V14.0442C68.7919 14.0442 68.0674 13.9569 67.516 13.7877L67.4181 14.1066ZM69.695 14.3778C70.6095 14.3778 71.3641 14.2892 71.9529 14.1065L71.8541 13.7879C71.3094 13.9569 70.5917 14.0442 69.695 14.0442V14.3778ZM71.9529 14.1065C72.5357 13.9256 73.0011 13.6772 73.3381 13.3542L73.1073 13.1134C72.8189 13.3898 72.4048 13.617 71.8541 13.7879L71.9529 14.1065ZM73.3369 13.3554C73.6769 13.0362 73.9089 12.6616 74.0283 12.233L73.707 12.1435C73.605 12.5096 73.407 12.8321 73.1086 13.1122L73.3369 13.3554ZM74.0285 12.2323C74.1435 11.813 74.2006 11.3714 74.2006 10.9081H73.867C73.867 11.3438 73.8134 11.7556 73.7068 12.1441L74.0285 12.2323ZM74.2006 10.9081V3.30554H73.867V10.9081H74.2006ZM74.0338 3.47231H77.6592V3.13877H74.0338V3.47231ZM77.4924 3.30554V12.2078H77.8259V3.30554H77.4924ZM85.4083 8.42603H85.2415V8.74359L85.503 8.56334L85.4083 8.42603ZM92.835 3.30554V3.13877H92.7831L92.7403 3.16824L92.835 3.30554ZM97.6916 3.30554L97.7884 3.44137L98.2132 3.13877H97.6916V3.30554ZM88.6526 9.74524L88.5558 9.60942L88.3668 9.74411L88.5548 9.8803L88.6526 9.74524ZM98.2975 16.7322V16.899H98.812L98.3953 16.5971L98.2975 16.7322ZM93.0109 16.7322L92.9122 16.8666L92.9562 16.899H93.0109V16.7322ZM85.4083 11.1524L85.507 11.018L85.2415 10.8231V11.1524H85.4083ZM85.4083 16.7322V16.899H85.5751V16.7322H85.4083ZM81.7634 16.7322H81.5966V16.899H81.7634V16.7322ZM81.7634 3.30554V3.13877H81.5966V3.30554H81.7634ZM85.4083 3.30554H85.5751V3.13877H85.4083V3.30554ZM85.503 8.56334L92.9296 3.44284L92.7403 3.16824L85.3136 8.28873L85.503 8.56334ZM92.835 3.47231H97.6916V3.13877H92.835V3.47231ZM97.5949 3.16971L88.5558 9.60942L88.7494 9.88107L97.7884 3.44137L97.5949 3.16971ZM88.5548 9.8803L98.1997 16.8672L98.3953 16.5971L88.7504 9.61018L88.5548 9.8803ZM98.2975 16.5654H93.0109V16.899H98.2975V16.5654ZM93.1096 16.5977L85.507 11.018L85.3096 11.2869L92.9122 16.8666L93.1096 16.5977ZM85.2415 11.1524V16.7322H85.5751V11.1524H85.2415ZM85.4083 16.5654H81.7634V16.899H85.4083V16.5654ZM81.9302 16.7322V3.30554H81.5966V16.7322H81.9302ZM81.7634 3.47231H85.4083V3.13877H81.7634V3.47231ZM85.2415 3.30554V8.42603H85.5751V3.30554H85.2415Z" fill="#F5F5F5"/>
<defs>
<linearGradient id="paint0_linear_254_253" x1="21.2877" y1="0.732178" x2="21.2877" y2="22.2168" gradientUnits="userSpaceOnUse">
<stop stop-color="#40F214"/>
<stop offset="1" stop-color="#15D028"/>
</linearGradient>
<linearGradient id="paint1_linear_254_253" x1="21.2877" y1="0.732178" x2="21.2877" y2="22.2168" gradientUnits="userSpaceOnUse">
<stop stop-color="#40F214"/>
<stop offset="1" stop-color="#15D028"/>
</linearGradient>
</defs>
</svg>
